<svg version="1.1" xmlns="http://www.w3.org/2000/svg" viewBox="0 0 416 500" width="832" height="1000"><!-- svg-source:excalidraw --><metadata></metadata><defs><style class="style-fonts">
      </style></defs><rect x="0" y="0" width="416" height="500" fill="#ffffff"></rect><g transform="translate(118 132) rotate(0 -6.5 37)" stroke="none"><path fill="#1e1e1e" d="M 4.42,2.95 Q 4.42,2.95 3.32,4.70 2.21,6.46 0.99,8.47 -0.21,10.49 -1.84,13.10 -3.46,15.70 -5.33,17.82 -7.19,19.93 -9.86,22.63 -12.52,25.33 -15.09,27.39 -17.65,29.46 -20.22,31.42 -22.79,33.38 -25.36,35.31 -27.92,37.24 -31.54,39.59 -35.16,41.94 -38.00,44.25 -40.84,46.56 -44.24,49.19 -47.64,51.83 -50.58,53.99 -53.51,56.15 -56.40,58.37 -59.29,60.60 -61.36,62.30 -63.44,64.00 -65.85,66.09 -68.26,68.18 -69.41,66.13 -70.55,64.08 -67.88,63.18 -65.21,62.28 -62.04,61.96 -58.86,61.64 -54.70,60.80 -50.54,59.95 -46.18,58.99 -41.82,58.02 -38.68,57.83 -35.55,57.64 -32.45,57.40 -29.35,57.16 -23.88,57.62 -18.41,58.09 -13.29,58.71 -8.16,59.33 -1.92,60.26 4.31,61.19 9.22,61.94 14.13,62.69 18.79,63.34 23.45,63.99 26.53,64.08 29.61,64.17 32.77,64.45 35.94,64.73 38.52,65.04 41.10,65.36 43.39,65.72 45.68,66.07 48.04,66.45 50.41,66.83 54.03,67.20 57.65,67.58 60.40,68.29 63.14,69.00 63.91,69.31 64.67,69.63 65.30,70.17 65.93,70.71 66.35,71.42 66.77,72.14 66.94,72.95 67.11,73.76 67.02,74.58 66.92,75.41 66.57,76.16 66.21,76.91 65.64,77.50 65.06,78.10 64.33,78.48 63.59,78.86 62.77,78.99 61.95,79.12 61.14,78.98 60.32,78.84 59.59,78.44 58.86,78.05 58.29,77.44 57.73,76.84 57.39,76.08 57.05,75.32 56.96,74.50 56.88,73.67 57.07,72.87 57.25,72.06 57.68,71.35 58.12,70.64 58.75,70.11 59.39,69.58 60.16,69.28 60.94,68.98 61.76,68.94 62.59,68.91 63.39,69.13 64.19,69.36 64.87,69.83 65.55,70.30 66.05,70.97 66.54,71.63 66.80,72.42 67.06,73.21 67.05,74.04 67.04,74.87 66.77,75.65 66.50,76.43 65.99,77.09 65.49,77.74 64.80,78.20 64.11,78.66 63.31,78.88 62.51,79.09 61.68,79.04 60.85,78.99 60.85,78.99 60.85,78.99 58.15,78.15 55.44,77.30 52.01,76.50 48.58,75.71 46.20,75.10 43.83,74.50 41.74,73.90 39.64,73.29 37.33,72.71 35.01,72.12 32.05,71.64 29.10,71.15 25.90,70.78 22.71,70.41 18.01,69.98 13.31,69.55 8.37,69.11 3.44,68.67 -2.64,68.16 -8.73,67.65 -13.69,67.59 -18.65,67.52 -23.37,67.73 -28.10,67.94 -31.40,68.46 -34.69,68.97 -37.14,69.20 -39.58,69.43 -43.92,70.41 -48.25,71.40 -50.56,71.87 -52.86,72.34 -55.08,72.76 -57.30,73.18 -59.79,73.48 -62.29,73.77 -65.54,73.60 -68.79,73.44 -71.48,72.91 -74.17,72.38 -76.22,69.14 -78.27,65.90 -76.23,63.41 -74.18,60.92 -71.26,59.15 -68.33,57.39 -66.20,55.97 -64.07,54.56 -61.12,52.17 -58.17,49.77 -55.49,47.82 -52.81,45.88 -49.75,42.91 -46.69,39.95 -43.81,37.19 -40.93,34.43 -37.85,31.62 -34.77,28.82 -32.41,26.74 -30.04,24.66 -27.76,22.59 -25.49,20.53 -23.42,18.53 -21.35,16.53 -18.73,13.90 -16.10,11.28 -14.56,9.81 -13.03,8.33 -11.49,6.43 -9.95,4.52 -8.38,2.48 -6.81,0.43 -5.62,-1.25 -4.42,-2.95 -4.00,-3.43 -3.59,-3.92 -3.07,-4.29 -2.54,-4.67 -1.95,-4.90 -1.35,-5.14 -0.72,-5.23 -0.08,-5.32 0.55,-5.25 1.18,-5.18 1.79,-4.96 2.39,-4.75 2.93,-4.39 3.46,-4.03 3.89,-3.56 4.32,-3.09 4.63,-2.52 4.94,-1.96 5.10,-1.34 5.27,-0.72 5.28,-0.08 5.29,0.55 5.14,1.18 5.00,1.80 4.71,2.37 4.42,2.95 4.42,2.95 L 4.42,2.95 Z"></path></g><g transform="translate(60 196) rotate(0 45.5 21.5)" stroke="none"><path fill="#1e1e1e" d="M 1.50,-5.03 Q 1.50,-5.03 4.37,-4.12 7.23,-3.20 9.65,-2.19 12.07,-1.18 14.75,-0.58 17.44,0.01 20.11,0.98 22.78,1.96 25.66,2.76 28.54,3.56 30.77,4.40 33.00,5.24 35.20,6.23 37.40,7.21 40.40,8.98 43.39,10.75 45.88,11.97 48.36,13.19 51.56,15.09 54.76,16.99 57.40,18.69 60.03,20.38 62.49,21.91 64.94,23.44 67.42,24.96 69.89,26.48 72.04,27.61 74.18,28.75 76.24,29.77 78.30,30.79 81.79,32.35 85.28,33.91 87.34,35.05 89.41,36.19 90.72,36.68 92.03,37.17 92.94,37.49 93.84,37.81 94.59,38.40 95.35,38.99 95.87,39.79 96.40,40.59 96.64,41.51 96.88,42.44 96.82,43.39 96.75,44.35 96.39,45.23 96.02,46.12 95.39,46.84 94.76,47.56 93.93,48.04 93.11,48.52 92.17,48.71 91.23,48.91 90.28,48.79 89.33,48.67 88.47,48.26 87.61,47.84 86.92,47.18 86.24,46.51 85.80,45.66 85.36,44.81 85.22,43.86 85.08,42.91 85.25,41.97 85.42,41.03 85.88,40.19 86.34,39.35 87.04,38.70 87.74,38.05 88.62,37.66 89.49,37.27 90.45,37.18 91.40,37.09 92.33,37.31 93.26,37.53 94.07,38.04 94.89,38.54 95.50,39.28 96.11,40.02 96.45,40.91 96.79,41.81 96.83,42.76 96.87,43.72 96.60,44.64 96.33,45.55 95.78,46.34 95.23,47.12 94.46,47.69 93.69,48.26 92.78,48.55 91.87,48.85 90.91,48.83 89.96,48.82 89.96,48.82 89.96,48.82 86.81,47.47 83.66,46.11 81.81,44.78 79.96,43.44 76.74,41.70 73.51,39.97 71.39,38.80 69.28,37.64 66.99,36.34 64.71,35.04 62.19,33.53 59.67,32.02 57.14,30.49 54.61,28.96 52.27,27.51 49.94,26.05 46.85,24.61 43.76,23.17 40.92,21.93 38.09,20.70 33.44,18.56 28.80,16.42 25.34,15.16 21.87,13.91 18.98,12.74 16.10,11.57 13.75,10.60 11.40,9.63 7.83,8.14 4.26,6.65 1.37,5.84 -1.50,5.03 -2.08,4.77 -2.66,4.52 -3.17,4.13 -3.67,3.75 -4.06,3.25 -4.46,2.76 -4.73,2.19 -4.99,1.61 -5.11,0.99 -5.23,0.37 -5.20,-0.25 -5.17,-0.89 -4.99,-1.49 -4.81,-2.10 -4.49,-2.64 -4.16,-3.19 -3.72,-3.64 -3.28,-4.09 -2.74,-4.43 -2.20,-4.76 -1.60,-4.96 -1.00,-5.15 -0.36,-5.20 0.26,-5.24 0.88,-5.13 1.50,-5.03 1.50,-5.03 L 1.50,-5.03 Z"></path></g><g transform="translate(122 131) rotate(0 31 54)" stroke="none"><path fill="#1e1e1e" d="M 2.91,-4.37 Q 2.91,-4.37 5.46,-2.59 8.01,-0.80 10.00,0.46 11.99,1.73 14.64,3.49 17.28,5.25 19.54,6.99 21.79,8.73 23.59,11.16 25.38,13.59 27.26,15.42 29.14,17.24 31.80,19.27 34.46,21.30 36.25,22.67 38.05,24.04 41.40,26.69 44.76,29.34 46.32,31.08 47.87,32.83 50.59,36.01 53.31,39.20 55.46,41.46 57.60,43.73 60.07,46.95 62.54,50.18 64.06,52.23 65.58,54.27 66.90,57.86 68.21,61.46 67.79,65.40 67.36,69.33 65.20,71.94 63.04,74.54 61.41,76.83 59.78,79.12 58.38,81.09 56.98,83.05 56.20,85.64 55.41,88.24 54.33,91.09 53.26,93.95 52.23,96.51 51.21,99.08 50.06,102.51 48.91,105.94 44.55,110.06 40.19,114.18 36.92,111.78 33.65,109.37 32.28,106.36 30.90,103.36 30.13,101.56 29.37,99.76 29.10,98.63 28.83,97.50 28.94,96.34 29.05,95.19 29.52,94.12 29.99,93.06 30.77,92.21 31.56,91.35 32.57,90.79 33.59,90.23 34.74,90.02 35.88,89.81 37.03,89.98 38.18,90.15 39.21,90.68 40.25,91.21 41.06,92.04 41.87,92.87 42.38,93.92 42.88,94.96 43.03,96.12 43.17,97.27 42.94,98.41 42.71,99.55 42.13,100.55 41.54,101.56 40.67,102.32 39.80,103.09 38.72,103.54 37.65,103.98 36.49,104.06 35.33,104.15 34.21,103.85 33.08,103.56 32.11,102.92 31.14,102.29 30.42,101.37 29.70,100.46 29.32,99.36 28.93,98.27 28.91,97.11 28.89,95.95 29.24,94.84 29.60,93.73 30.29,92.80 30.97,91.86 31.93,91.19 32.88,90.53 33.99,90.20 35.11,89.87 36.27,89.91 37.43,89.96 38.51,90.37 39.60,90.78 40.50,91.52 41.39,92.26 42.01,93.25 42.62,94.23 42.62,94.23 42.62,94.23 43.55,96.95 44.48,99.67 45.61,101.60 46.74,103.52 44.39,101.82 42.04,100.11 38.24,102.09 34.44,104.07 35.42,102.01 36.40,99.95 37.33,96.72 38.25,93.49 39.22,91.02 40.18,88.54 41.04,86.15 41.91,83.76 42.70,81.31 43.50,78.85 44.61,76.44 45.73,74.03 47.67,71.71 49.62,69.39 51.22,67.45 52.81,65.50 53.60,63.36 54.38,61.21 53.36,59.34 52.35,57.46 50.48,54.89 48.61,52.32 46.25,49.68 43.90,47.05 42.34,45.27 40.79,43.50 38.71,41.08 36.64,38.67 33.64,36.33 30.64,34.00 27.20,31.48 23.75,28.96 21.01,26.43 18.26,23.89 16.27,21.00 14.27,18.11 12.75,16.29 11.23,14.47 8.72,12.43 6.20,10.39 4.27,9.05 2.33,7.70 -0.28,6.04 -2.91,4.37 -3.39,3.95 -3.87,3.54 -4.24,3.03 -4.61,2.51 -4.84,1.92 -5.07,1.33 -5.16,0.71 -5.25,0.08 -5.18,-0.54 -5.12,-1.17 -4.90,-1.77 -4.69,-2.36 -4.33,-2.89 -3.98,-3.41 -3.52,-3.84 -3.05,-4.27 -2.49,-4.57 -1.94,-4.88 -1.32,-5.04 -0.71,-5.20 -0.08,-5.21 0.54,-5.22 1.16,-5.08 1.78,-4.94 2.34,-4.65 2.91,-4.37 2.91,-4.37 L 2.91,-4.37 Z"></path></g><g transform="translate(124 130) rotate(0 72 64.5)" stroke="none"><path fill="#1e1e1e" d="M -5.27,0 Q -5.27,0 -5.33,-2.01 -5.39,-4.02 -5.05,-6.94 -4.72,-9.86 -3.38,-12.61 -2.04,-15.37 -0.95,-17.93 0.14,-20.49 1.48,-22.16 2.81,-23.82 3.23,-26.02 3.64,-28.21 4.75,-30.09 5.86,-31.97 7.61,-33.99 9.36,-36.00 11.24,-37.54 13.12,-39.07 15.51,-40.19 17.90,-41.32 20.62,-42.92 23.34,-44.52 25.63,-45.49 27.91,-46.47 30.10,-47.47 32.29,-48.46 35.61,-49.22 38.93,-49.98 42.67,-50.47 46.41,-50.95 49.85,-51.57 53.29,-52.19 55.44,-52.39 57.58,-52.58 59.72,-52.63 61.86,-52.69 65.48,-52.39 69.10,-52.10 71.49,-51.54 73.89,-50.98 75.95,-49.89 78.01,-48.80 81.21,-47.45 84.41,-46.10 86.10,-44.61 87.79,-43.13 89.38,-41.53 90.98,-39.93 92.33,-38.17 93.68,-36.41 94.98,-34.68 96.28,-32.94 98.13,-30.55 99.99,-28.16 102.44,-25.33 104.88,-22.51 107.33,-20.05 109.77,-17.60 111.37,-15.50 112.98,-13.40 114.51,-11.30 116.04,-9.19 117.99,-6.28 119.95,-3.36 121.67,-0.65 123.39,2.05 124.94,5.15 126.49,8.24 127.90,10.65 129.30,13.05 130.48,15.77 131.66,18.50 132.83,21.04 134.01,23.59 135.33,27.46 136.66,31.34 137.64,33.97 138.63,36.60 139.85,40.42 141.06,44.24 141.89,47.91 142.72,51.58 143.63,55.12 144.54,58.66 145.34,62.69 146.14,66.72 146.89,70.13 147.64,73.54 148.28,78.61 148.91,83.67 149.41,87.94 149.91,92.21 149.97,94.44 150.04,96.67 150.04,99.07 150.04,101.47 150.12,104.59 150.20,107.71 150.25,110.86 150.30,114.01 150.36,116.63 150.42,119.24 150.51,121.91 150.60,124.57 150.27,127.57 149.94,130.56 149.86,132.82 149.78,135.07 149.41,138.24 149.04,141.40 148.58,143.81 148.13,146.23 147.96,149.18 147.78,152.12 147.75,155.12 147.71,158.13 147.30,161.04 146.89,163.96 146.86,166.19 146.82,168.42 146.32,171.41 145.82,174.40 145.11,175.46 144.40,176.52 144.00,177.25 143.61,177.98 143.05,178.59 142.49,179.20 141.81,179.67 141.12,180.13 140.34,180.41 139.56,180.70 138.73,180.79 137.91,180.88 137.09,180.77 136.26,180.66 135.49,180.35 134.72,180.05 134.04,179.57 133.37,179.09 132.82,178.46 132.28,177.83 131.90,177.09 131.53,176.35 131.34,175.55 131.15,174.74 131.16,173.91 131.17,173.08 131.38,172.28 131.59,171.47 131.49,173.69 131.39,175.92 131.25,174.81 131.12,173.70 131.34,172.61 131.57,171.52 132.13,170.56 132.70,169.60 133.54,168.87 134.38,168.14 135.41,167.72 136.44,167.29 137.55,167.22 138.66,167.14 139.73,167.43 140.81,167.71 141.74,168.33 142.67,168.94 143.35,169.82 144.04,170.70 144.41,171.75 144.77,172.80 144.79,173.91 144.80,175.03 144.46,176.09 144.11,177.15 143.45,178.04 142.79,178.94 141.87,179.57 140.96,180.21 139.89,180.52 138.82,180.83 137.71,180.78 136.59,180.73 135.56,180.33 134.52,179.93 133.66,179.22 132.80,178.51 132.22,177.56 131.63,176.62 131.38,175.53 131.13,174.45 131.23,173.34 131.34,172.23 131.80,171.22 132.25,170.20 133.01,169.38 133.77,168.56 134.74,168.03 135.72,167.50 136.82,167.31 137.91,167.11 139.02,167.28 140.12,167.45 141.11,167.96 142.10,168.47 142.87,169.27 143.65,170.07 144.02,173.29 144.40,176.52 144.00,177.25 143.61,177.98 143.05,178.59 142.49,179.20 141.81,179.67 141.12,180.13 140.34,180.41 139.56,180.70 138.73,180.79 137.91,180.88 137.09,180.77 136.26,180.66 135.49,180.35 134.72,180.05 134.04,179.57 133.37,179.09 132.82,178.46 132.28,177.83 131.91,177.09 131.53,176.35 131.34,175.55 131.15,174.74 131.16,173.91 131.17,173.08 131.38,172.28 131.59,171.47 132.41,169.81 133.23,168.16 133.35,165.35 133.47,162.55 133.89,160.26 134.31,157.97 134.35,154.85 134.39,151.72 134.63,147.50 134.87,143.27 135.58,140.17 136.29,137.08 136.39,134.21 136.50,131.34 136.95,127.95 137.39,124.57 137.48,121.91 137.57,119.25 137.63,116.63 137.69,114.02 137.73,110.89 137.77,107.76 137.82,104.69 137.87,101.62 137.81,99.34 137.75,97.06 137.54,93.16 137.33,89.25 136.90,86.95 136.48,84.65 136.27,82.54 136.06,80.42 135.07,76.31 134.09,72.21 133.53,69.05 132.97,65.89 131.95,62.27 130.92,58.65 129.90,54.73 128.87,50.81 128.28,47.96 127.69,45.12 126.30,41.79 124.90,38.46 123.81,35.34 122.73,32.23 121.32,29.17 119.91,26.11 118.93,23.71 117.95,21.31 117.04,19.30 116.13,17.28 114.55,14.50 112.98,11.73 111.41,9.26 109.84,6.80 108.35,4.47 106.87,2.15 104.85,-0.40 102.82,-2.95 101.59,-4.83 100.37,-6.70 98.30,-9.07 96.24,-11.43 94.45,-13.32 92.66,-15.21 91.17,-16.73 89.67,-18.25 88.10,-20.01 86.52,-21.77 85.25,-23.93 83.98,-26.09 82.49,-28.09 80.99,-30.09 79.40,-31.97 77.80,-33.85 75.63,-34.67 73.46,-35.50 71.11,-36.94 68.75,-38.37 65.58,-38.72 62.41,-39.07 59.12,-38.79 55.84,-38.52 53.73,-38.03 51.62,-37.55 49.16,-37.12 46.70,-36.69 44.02,-36.24 41.34,-35.79 38.98,-35.23 36.61,-34.67 34.18,-33.82 31.74,-32.96 29.37,-31.75 26.99,-30.54 24.48,-29.36 21.97,-28.17 19.66,-26.45 17.36,-24.73 16.01,-23.00 14.65,-21.27 13.70,-18.89 12.75,-16.52 11.13,-14.37 9.52,-12.23 8.49,-10.07 7.47,-7.91 6.43,-5.97 5.39,-4.02 5.33,-2.01 5.27,0 5.19,0.63 5.11,1.26 4.89,1.85 4.66,2.44 4.30,2.97 3.94,3.49 3.46,3.91 2.99,4.33 2.43,4.63 1.86,4.92 1.25,5.08 0.63,5.23 -0.00,5.23 -0.63,5.23 -1.25,5.08 -1.86,4.92 -2.43,4.63 -2.99,4.33 -3.46,3.91 -3.94,3.49 -4.30,2.97 -4.66,2.44 -4.89,1.85 -5.11,1.26 -5.19,0.63 -5.27,-0.00 -5.27,-0.00 L -5.27,0 Z"></path></g><g transform="translate(209 256) rotate(0 22 40)" stroke="none"><path fill="#1e1e1e" d="M 3.44,-1.08 Q 3.44,-1.08 5.04,4.41 6.64,9.91 7.86,14.29 9.08,18.68 10.42,23.10 11.76,27.53 13.02,30.77 14.28,34.01 15.47,37.13 16.66,40.24 18.14,44.44 19.63,48.63 20.89,52.50 22.15,56.38 23.72,60.19 25.29,64.01 26.49,66.86 27.69,69.70 28.82,71.88 29.95,74.06 31.52,76.67 33.08,79.28 30.53,80.94 27.98,82.61 28.18,79.83 28.38,77.05 28.38,73.01 28.39,68.98 28.43,64.11 28.47,59.24 28.46,56.87 28.45,54.50 28.53,51.48 28.61,48.46 28.63,45.74 28.65,43.02 29.09,39.35 29.53,35.68 30.40,31.94 31.27,28.20 32.73,23.77 34.20,19.35 35.41,15.50 36.63,11.66 37.26,9.09 37.89,6.51 38.36,4.31 38.83,2.11 38.45,-1.18 38.07,-4.48 38.20,-5.07 38.33,-5.65 38.59,-6.18 38.86,-6.72 39.24,-7.17 39.63,-7.63 40.11,-7.98 40.60,-8.33 41.15,-8.55 41.70,-8.78 42.30,-8.86 42.89,-8.95 43.48,-8.89 44.07,-8.83 44.64,-8.63 45.20,-8.43 45.70,-8.10 46.20,-7.77 46.60,-7.34 47.01,-6.90 47.30,-6.37 47.59,-5.85 47.74,-5.28 47.90,-4.70 47.91,-4.10 47.92,-3.51 44.92,-1.33 41.91,0.83 41.17,0.53 40.42,0.23 39.81,-0.28 39.21,-0.80 38.80,-1.49 38.39,-2.18 38.22,-2.96 38.05,-3.75 38.14,-4.54 38.23,-5.34 38.57,-6.07 38.91,-6.79 39.46,-7.37 40.01,-7.95 40.72,-8.32 41.43,-8.70 42.23,-8.82 43.02,-8.95 43.81,-8.82 44.60,-8.68 45.30,-8.30 46.01,-7.93 46.56,-7.34 47.11,-6.76 47.44,-6.03 47.77,-5.30 47.86,-4.50 47.94,-3.71 47.76,-2.92 47.59,-2.14 47.17,-1.46 46.76,-0.77 46.14,-0.26 45.53,0.25 44.78,0.54 44.04,0.84 43.24,0.88 42.44,0.92 41.67,0.70 40.90,0.48 40.23,0.03 39.57,-0.41 39.09,-1.05 38.61,-1.69 38.36,-2.46 38.10,-3.22 38.11,-4.02 38.11,-4.82 38.37,-5.58 38.63,-6.33 39.12,-6.97 39.60,-7.61 40.27,-8.05 40.94,-8.50 41.71,-8.71 42.48,-8.92 40.27,-6.70 38.07,-4.48 38.20,-5.07 38.33,-5.65 38.59,-6.18 38.86,-6.72 39.24,-7.17 39.63,-7.63 40.11,-7.98 40.60,-8.33 41.15,-8.55 41.70,-8.78 42.29,-8.86 42.89,-8.95 43.48,-8.89 44.07,-8.83 44.64,-8.63 45.20,-8.43 45.70,-8.10 46.20,-7.77 46.60,-7.34 47.01,-6.90 47.30,-6.38 47.59,-5.85 47.74,-5.28 47.90,-4.70 47.91,-4.10 47.92,-3.51 48.32,-2.20 48.71,-0.89 48.04,1.77 47.38,4.43 46.64,6.66 45.91,8.88 45.06,11.32 44.21,13.75 43.28,17.64 42.36,21.52 41.51,25.80 40.66,30.08 40.13,33.30 39.61,36.53 39.47,39.77 39.34,43.02 39.36,45.74 39.38,48.46 39.45,51.48 39.53,54.51 39.52,56.88 39.50,59.26 39.56,62.14 39.62,65.03 39.50,69.20 39.37,73.38 39.25,75.71 39.14,78.05 38.81,80.22 38.49,82.40 37.50,84.59 36.52,86.79 32.31,87.35 28.10,87.92 26.63,85.48 25.16,83.04 24.12,80.02 23.08,76.99 22.20,74.48 21.33,71.97 20.53,69.19 19.72,66.40 17.92,62.39 16.12,58.38 14.87,54.65 13.61,50.92 11.88,46.70 10.15,42.47 9.19,39.32 8.23,36.16 7.13,32.76 6.03,29.36 4.54,24.93 3.04,20.50 1.65,16.21 0.25,11.93 -1.59,6.51 -3.44,1.08 -3.52,0.66 -3.60,0.23 -3.58,-0.20 -3.55,-0.63 -3.43,-1.05 -3.30,-1.47 -3.07,-1.84 -2.85,-2.21 -2.54,-2.52 -2.24,-2.83 -1.86,-3.06 -1.49,-3.29 -1.08,-3.42 -0.66,-3.55 -0.23,-3.58 0.20,-3.60 0.63,-3.53 1.06,-3.45 1.46,-3.27 1.85,-3.10 2.20,-2.83 2.54,-2.56 2.81,-2.22 3.08,-1.88 3.26,-1.48 3.44,-1.08 3.44,-1.08 L 3.44,-1.08 Z"></path></g><g transform="translate(153 251) rotate(0 53.5 90)" stroke="none"><path fill="#1e1e1e" d="M 5.18,-1.03 Q 5.18,-1.03 5.71,1.84 6.25,4.72 7.37,8.69 8.49,12.66 9.57,15.32 10.64,17.98 11.41,20.65 12.17,23.31 12.58,26.48 12.99,29.65 13.11,32.41 13.23,35.17 13.23,39.12 13.24,43.07 13.17,45.63 13.11,48.20 13.09,50.44 13.07,52.68 13.00,55.36 12.93,58.04 12.92,60.33 12.91,62.61 12.81,65.60 12.70,68.58 12.66,71.29 12.61,73.99 12.59,76.58 12.57,79.17 12.47,82.28 12.38,85.39 12.39,87.87 12.40,90.34 12.55,93.47 12.70,96.60 13.07,99.32 13.44,102.04 13.82,105.28 14.21,108.52 14.43,111.51 14.65,114.49 15.05,116.62 15.45,118.74 15.90,121.44 16.35,124.15 17.40,128.32 18.45,132.49 19.17,134.64 19.90,136.79 20.74,139.91 21.59,143.03 22.49,145.26 23.39,147.49 24.56,150.14 25.73,152.79 26.81,154.64 27.89,156.49 29.14,158.30 30.39,160.11 31.92,161.86 33.45,163.61 36.29,166.79 39.14,169.96 41.33,171.31 43.52,172.65 45.84,173.23 48.15,173.80 51.10,171.61 54.05,169.42 56.55,167.83 59.05,166.23 62.19,164.42 65.32,162.62 67.28,161.64 69.23,160.67 71.39,159.53 73.55,158.40 75.29,157.06 77.04,155.72 79.32,153.81 81.60,151.91 83.60,150.30 85.61,148.69 87.80,146.20 89.99,143.70 91.31,141.61 92.62,139.52 94.39,136.58 96.16,133.64 96.74,131.06 97.32,128.49 97.44,125.92 97.56,123.35 97.92,119.71 98.28,116.07 98.82,113.11 99.35,110.14 99.91,105.63 100.46,101.12 100.69,96.74 100.91,92.37 100.91,88.61 100.91,84.84 100.97,82.30 101.02,79.76 101.02,75.55 101.02,71.34 100.96,67.88 100.90,64.42 100.78,61.73 100.66,59.04 100.57,56.48 100.47,53.91 100.68,54.51 100.89,55.11 100.37,54.19 99.84,53.27 99.64,52.23 99.44,51.18 99.58,50.13 99.72,49.08 100.19,48.13 100.66,47.18 101.41,46.43 102.16,45.67 103.11,45.20 104.06,44.73 105.11,44.58 106.16,44.44 107.20,44.64 108.25,44.83 109.17,45.35 110.10,45.88 110.81,46.66 111.52,47.45 111.94,48.43 112.36,49.40 112.45,50.46 112.53,51.52 112.28,52.55 112.02,53.58 111.45,54.47 110.88,55.37 110.06,56.03 109.23,56.70 108.24,57.07 107.24,57.43 106.18,57.47 105.12,57.50 104.11,57.19 103.09,56.88 102.23,56.26 101.36,55.64 100.74,54.78 100.12,53.92 99.81,52.90 99.50,51.89 99.52,50.83 99.55,49.77 99.92,48.77 100.28,47.78 100.94,46.95 101.61,46.12 102.50,45.55 103.39,44.97 104.42,44.72 105.45,44.46 106.51,44.54 107.57,44.63 108.54,45.04 109.52,45.46 110.31,46.17 111.10,46.88 111.10,46.88 111.10,46.88 112.31,50.39 113.52,53.91 113.42,56.48 113.33,59.04 113.21,61.73 113.09,64.42 113.03,67.88 112.97,71.35 112.96,75.56 112.95,79.78 113.00,82.34 113.05,84.91 112.98,88.78 112.91,92.66 112.88,95.15 112.84,97.65 112.71,99.99 112.58,102.33 112.47,105.39 112.35,108.45 111.98,111.78 111.60,115.10 110.94,117.83 110.29,120.55 110.12,124.30 109.95,128.05 109.16,131.49 108.38,134.93 107.65,137.24 106.93,139.55 105.80,141.54 104.68,143.53 102.71,146.32 100.75,149.11 98.53,151.63 96.30,154.14 94.60,155.93 92.90,157.71 91.20,159.08 89.50,160.46 87.12,162.87 84.74,165.28 82.29,167.32 79.83,169.36 75.71,171.75 71.59,174.14 68.62,175.90 65.65,177.66 63.41,179.01 61.17,180.37 59.35,181.68 57.54,182.99 54.75,184.17 51.96,185.34 49.60,185.64 47.24,185.94 44.62,185.30 42.01,184.66 39.80,183.50 37.59,182.34 34.12,179.59 30.66,176.83 28.06,173.64 25.46,170.45 23.55,168.18 21.65,165.92 20.22,163.70 18.80,161.48 17.65,159.26 16.50,157.04 15.13,154.16 13.76,151.28 12.74,148.63 11.72,145.98 10.75,143.03 9.78,140.07 8.94,137.39 8.09,134.71 7.65,132.46 7.21,130.21 6.77,128.00 6.33,125.79 5.88,123.06 5.44,120.32 5.10,117.76 4.76,115.19 4.59,112.55 4.42,109.92 3.88,106.70 3.34,103.49 2.89,100.48 2.44,97.48 2.02,93.91 1.59,90.34 1.60,87.87 1.61,85.39 1.52,82.28 1.42,79.17 1.40,76.58 1.38,73.99 1.33,71.29 1.29,68.58 1.18,65.60 1.08,62.61 1.07,60.33 1.06,58.04 0.99,55.36 0.92,52.68 0.90,50.45 0.88,48.21 0.81,43.67 0.73,39.14 0.76,36.06 0.78,32.97 0.79,30.47 0.80,27.96 0.41,25.46 0.02,22.97 -0.48,20.84 -0.99,18.71 -1.96,14.97 -2.93,11.23 -3.44,9.00 -3.95,6.77 -4.56,3.90 -5.18,1.03 -5.23,0.40 -5.28,-0.23 -5.17,-0.86 -5.07,-1.49 -4.82,-2.07 -4.56,-2.66 -4.18,-3.17 -3.79,-3.67 -3.30,-4.07 -2.80,-4.48 -2.23,-4.75 -1.65,-5.02 -1.02,-5.14 -0.40,-5.27 0.23,-5.24 0.86,-5.21 1.48,-5.03 2.09,-4.85 2.64,-4.53 3.19,-4.21 3.65,-3.77 4.10,-3.32 4.44,-2.78 4.78,-2.24 4.98,-1.64 5.18,-1.03 5.18,-1.03 L 5.18,-1.03 Z"></path></g><g transform="translate(188 430) rotate(0 -34 13)" stroke="none"><path fill="#1e1e1e" d="M 0.97,4.88 Q 0.97,4.88 -1.90,5.44 -4.77,6.00 -8.28,7.17 -11.78,8.33 -15.23,10.00 -18.68,11.68 -20.65,12.62 -22.61,13.57 -25.60,14.78 -28.58,15.98 -30.90,17.07 -33.22,18.16 -35.75,19.24 -38.29,20.32 -41.77,21.50 -45.24,22.69 -47.72,23.79 -50.19,24.88 -52.76,25.97 -55.33,27.06 -57.31,27.89 -59.30,28.73 -62.39,29.83 -65.48,30.93 -67.67,30.63 -69.86,30.34 -71.22,25.74 -72.58,21.15 -69.02,18.26 -65.47,15.37 -63.37,14.54 -61.28,13.70 -59.04,12.98 -56.80,12.25 -54.62,11.48 -52.44,10.71 -48.91,9.42 -45.38,8.14 -41.99,6.69 -38.61,5.25 -36.55,4.61 -34.49,3.97 -30.61,2.88 -26.72,1.79 -22.67,0.79 -18.61,-0.19 -16.50,-0.47 -14.38,-0.76 -12.25,-0.88 -10.12,-1.00 -7.46,-1.13 -4.81,-1.26 -5.60,-0.55 -6.40,0.15 -6.26,-0.87 -6.12,-1.89 -5.65,-2.82 -5.19,-3.75 -4.46,-4.48 -3.72,-5.21 -2.79,-5.67 -1.86,-6.13 -0.83,-6.26 0.19,-6.40 1.20,-6.20 2.22,-6.01 3.12,-5.49 4.02,-4.98 4.71,-4.21 5.41,-3.43 5.81,-2.48 6.22,-1.53 6.30,-0.49 6.38,0.53 6.13,1.54 5.88,2.54 5.32,3.42 4.75,4.29 3.94,4.94 3.13,5.58 2.16,5.94 1.19,6.29 0.15,6.32 -0.88,6.34 -1.87,6.04 -2.86,5.73 -3.70,5.12 -4.54,4.52 -5.14,3.67 -5.75,2.83 -6.05,1.84 -6.35,0.84 -6.32,-0.18 -6.29,-1.22 -5.93,-2.19 -5.57,-3.17 -4.91,-3.97 -4.26,-4.78 -3.39,-5.33 -2.51,-5.89 -1.50,-6.14 -0.50,-6.39 0.53,-6.30 1.56,-6.21 2.51,-5.80 3.46,-5.39 4.23,-4.69 5.00,-4.00 5.51,-3.09 6.02,-2.19 6.21,-1.17 6.40,-0.15 6.40,-0.15 6.40,-0.15 5.74,3.28 5.08,6.73 0.22,9.02 -4.63,11.31 -7.08,11.29 -9.54,11.26 -12.74,11.47 -15.94,11.67 -20.01,12.69 -24.08,13.71 -27.52,14.69 -30.97,15.67 -34.13,16.69 -37.30,17.72 -39.39,18.62 -41.48,19.52 -44.91,20.65 -48.35,21.79 -52.58,23.28 -56.81,24.76 -60.66,26.34 -64.52,27.91 -65.40,24.00 -66.29,20.09 -62.74,18.95 -59.18,17.81 -56.69,16.79 -54.20,15.76 -51.54,14.60 -48.87,13.43 -45.67,12.00 -42.46,10.57 -40.10,9.55 -37.74,8.53 -35.30,7.39 -32.86,6.25 -30.07,4.91 -27.28,3.57 -25.11,2.59 -22.95,1.62 -20.89,0.77 -18.84,-0.07 -16.69,-0.96 -14.55,-1.85 -10.63,-2.78 -6.72,-3.70 -3.84,-4.29 -0.97,-4.88 -0.37,-4.92 0.22,-4.97 0.81,-4.87 1.40,-4.77 1.95,-4.53 2.50,-4.30 2.98,-3.93 3.46,-3.57 3.84,-3.11 4.21,-2.64 4.47,-2.10 4.72,-1.55 4.84,-0.96 4.96,-0.38 4.93,0.21 4.91,0.81 4.74,1.39 4.57,1.96 4.26,2.48 3.96,3.00 3.55,3.43 3.13,3.86 2.62,4.18 2.11,4.50 1.54,4.69 0.97,4.88 0.97,4.88 L 0.97,4.88 Z"></path></g><g transform="translate(176 140) rotate(0 0.00004999999998744897 0.00004999999998744897)" stroke="none"><path fill="#1e1e1e" d="M 3.14,-3.14 Q 3.14,-3.14 3.55,-2.55 3.97,-1.97 4.18,-1.28 4.40,-0.59 4.38,0.11 4.36,0.83 4.11,1.51 3.86,2.18 3.41,2.74 2.96,3.30 2.36,3.69 1.75,4.08 1.05,4.25 0.36,4.42 -0.35,4.36 -1.07,4.31 -1.73,4.02 -2.39,3.74 -2.92,3.26 -3.46,2.78 -3.81,2.15 -4.16,1.53 -4.30,0.82 -4.43,0.11 -4.34,-0.59 -4.24,-1.30 -3.92,-1.94 -3.60,-2.59 -3.09,-3.09 -2.59,-3.60 -1.94,-3.92 -1.30,-4.24 -0.59,-4.34 0.12,-4.43 0.82,-4.30 1.53,-4.16 2.15,-3.81 2.78,-3.46 3.26,-2.92 3.74,-2.39 4.02,-1.73 4.31,-1.07 4.36,-0.35 4.42,0.36 4.25,1.05 4.07,1.75 3.69,2.36 3.30,2.96 2.74,3.41 2.18,3.86 1.51,4.11 0.83,4.36 0.11,4.38 -0.60,4.40 -1.28,4.18 -1.97,3.97 -2.55,3.55 -3.14,3.13 -3.14,3.14 -3.14,3.14 -3.47,2.71 -3.80,2.29 -4.02,1.80 -4.24,1.32 -4.33,0.79 -4.43,0.26 -4.40,-0.26 -4.36,-0.80 -4.20,-1.31 -4.04,-1.82 -3.77,-2.28 -3.49,-2.73 -3.11,-3.11 -2.73,-3.49 -2.28,-3.77 -1.82,-4.05 -1.31,-4.20 -0.80,-4.36 -0.26,-4.40 0.26,-4.43 0.79,-4.33 1.32,-4.24 1.80,-4.02 2.29,-3.80 2.71,-3.47 3.14,-3.14 3.14,-3.14 L 3.14,-3.14 Z"></path></g><g transform="translate(216 434) rotate(0 -2 28)" stroke="none"><path fill="#1e1e1e" d="M 4.80,0 Q 4.80,0 4.77,3.16 4.74,6.32 4.72,9.39 4.71,12.46 4.78,14.91 4.85,17.37 4.48,20.91 4.11,24.46 3.67,27.70 3.22,30.95 3.10,33.57 2.98,36.19 2.62,39.24 2.25,42.29 1.87,44.60 1.48,46.91 1.45,49.64 1.42,52.36 1.47,52.79 1.53,53.22 1.42,53.87 1.32,54.53 1.05,55.15 0.79,55.76 0.39,56.30 -0.00,56.83 -0.52,57.25 -1.03,57.68 -1.64,57.96 -2.24,58.25 -2.89,58.38 -3.55,58.52 -4.21,58.49 -4.88,58.46 -5.52,58.28 -6.16,58.09 -6.74,57.76 -7.32,57.42 -7.80,56.96 -8.28,56.50 -8.64,55.94 -9.00,55.37 -9.21,54.74 -9.42,54.10 -9.48,53.44 -9.53,52.77 -9.39,52.01 -9.25,51.25 -8.84,50.46 -8.42,49.66 -7.77,49.04 -7.12,48.42 -6.31,48.04 -5.50,47.66 -4.61,47.56 -3.72,47.46 -2.84,47.65 -1.97,47.84 -1.20,48.30 -0.43,48.76 0.15,49.44 0.73,50.12 1.06,50.95 1.40,51.78 1.45,52.68 1.50,53.57 1.27,54.43 1.03,55.30 0.53,56.04 0.03,56.79 -0.67,57.33 -1.38,57.88 -2.23,58.17 -3.08,58.46 -3.97,58.46 -4.87,58.46 -5.72,58.18 -6.57,57.90 -7.28,57.36 -8.00,56.82 -8.51,56.08 -9.01,55.34 -9.26,54.48 -9.50,53.62 -9.45,52.72 -9.41,51.83 -9.08,50.99 -8.75,50.16 -8.18,49.47 -7.60,48.79 -6.83,48.32 -6.07,47.86 -5.19,47.66 -4.32,47.47 -3.43,47.56 -2.54,47.65 -1.72,48.02 -0.91,48.40 -0.25,49.01 0.39,49.62 0.81,50.41 1.24,51.20 1.38,52.09 1.53,52.97 1.53,53.09 1.53,53.22 1.42,53.87 1.32,54.53 1.05,55.15 0.79,55.76 0.39,56.30 -0.00,56.83 -0.52,57.25 -1.03,57.67 -1.64,57.96 -2.24,58.25 -2.89,58.38 -3.55,58.52 -4.21,58.49 -4.88,58.46 -5.52,58.28 -6.16,58.09 -6.74,57.76 -7.32,57.42 -7.80,56.96 -8.28,56.50 -8.64,55.94 -9.00,55.37 -9.21,54.74 -9.42,54.11 -9.48,53.44 -9.53,52.77 -9.46,53.15 -9.40,53.52 -9.11,51.19 -8.82,48.86 -8.00,44.99 -7.18,41.11 -6.82,38.35 -6.47,35.60 -6.24,32.67 -6.01,29.74 -5.64,26.70 -5.26,23.65 -5.06,20.51 -4.85,17.37 -4.78,14.91 -4.71,12.46 -4.72,9.39 -4.74,6.32 -4.77,3.16 -4.80,0 -4.73,-0.57 -4.66,-1.15 -4.46,-1.69 -4.25,-2.23 -3.92,-2.71 -3.59,-3.18 -3.16,-3.57 -2.73,-3.95 -2.21,-4.22 -1.70,-4.49 -1.14,-4.63 -0.57,-4.77 0.00,-4.77 0.57,-4.77 1.14,-4.63 1.70,-4.49 2.21,-4.22 2.73,-3.95 3.16,-3.57 3.59,-3.18 3.92,-2.71 4.25,-2.23 4.46,-1.69 4.66,-1.14 4.73,-0.57 4.80,0.00 4.80,0.00 L 4.80,0 Z"></path></g><g transform="translate(139 124) rotate(0 0.00004999999998744897 0.00004999999998744897)" stroke="none"><path fill="#1e1e1e" d="M 3.14,-3.14 Q 3.14,-3.14 3.55,-2.55 3.97,-1.97 4.18,-1.28 4.40,-0.59 4.38,0.11 4.36,0.83 4.11,1.51 3.86,2.18 3.41,2.74 2.96,3.30 2.36,3.69 1.75,4.08 1.05,4.25 0.36,4.42 -0.35,4.36 -1.07,4.31 -1.73,4.02 -2.39,3.74 -2.92,3.26 -3.46,2.78 -3.81,2.15 -4.16,1.53 -4.30,0.82 -4.43,0.11 -4.34,-0.59 -4.24,-1.30 -3.92,-1.94 -3.60,-2.59 -3.09,-3.09 -2.59,-3.60 -1.94,-3.92 -1.30,-4.24 -0.59,-4.34 0.12,-4.43 0.82,-4.30 1.53,-4.16 2.15,-3.81 2.78,-3.46 3.26,-2.92 3.74,-2.39 4.02,-1.73 4.31,-1.07 4.36,-0.35 4.42,0.36 4.25,1.05 4.07,1.75 3.69,2.36 3.30,2.96 2.74,3.41 2.18,3.86 1.51,4.11 0.83,4.36 0.11,4.38 -0.60,4.40 -1.28,4.18 -1.97,3.97 -2.55,3.55 -3.14,3.13 -3.14,3.14 -3.14,3.14 -3.47,2.71 -3.80,2.29 -4.02,1.80 -4.24,1.32 -4.33,0.79 -4.43,0.26 -4.40,-0.26 -4.36,-0.80 -4.20,-1.31 -4.04,-1.82 -3.77,-2.28 -3.49,-2.73 -3.11,-3.11 -2.73,-3.49 -2.28,-3.77 -1.82,-4.05 -1.31,-4.20 -0.80,-4.36 -0.26,-4.40 0.26,-4.43 0.79,-4.33 1.32,-4.24 1.80,-4.02 2.29,-3.80 2.71,-3.47 3.14,-3.14 3.14,-3.14 L 3.14,-3.14 Z"></path></g><g transform="translate(153 293) rotate(0 -5.5 32.5)" stroke="none"><path fill="#1e1e1e" d="M 5.07,0.84 Q 5.07,0.84 4.86,2.60 4.64,4.36 3.83,6.59 3.02,8.82 1.81,11.66 0.60,14.50 -0.11,16.59 -0.83,18.69 -1.77,20.91 -2.70,23.14 -3.66,25.25 -4.63,27.35 -5.66,30.80 -6.70,34.25 -7.69,38.33 -8.68,42.40 -9.65,46.62 -10.62,50.84 -11.14,54.37 -11.66,57.89 -11.73,60.35 -11.81,62.81 -13.66,60.93 -15.50,59.05 -15.26,56.35 -15.01,53.66 -13.07,51.23 -11.14,48.79 -9.19,46.72 -7.25,44.66 -5.53,42.90 -3.80,41.14 0.90,37.63 5.62,34.12 6.75,34.08 7.88,34.04 8.97,34.37 10.06,34.69 10.98,35.35 11.91,36.00 12.58,36.91 13.25,37.83 13.59,38.91 13.93,39.99 13.91,41.13 13.89,42.26 13.51,43.33 13.12,44.39 12.42,45.28 11.72,46.17 10.77,46.79 9.82,47.41 8.72,47.69 7.62,47.97 6.49,47.89 5.36,47.81 4.31,47.37 3.27,46.93 2.42,46.18 1.57,45.43 1.00,44.45 0.44,43.46 0.21,42.35 -0.00,41.24 0.14,40.12 0.28,38.99 0.78,37.97 1.27,36.95 2.07,36.15 2.86,35.34 3.87,34.83 4.88,34.31 6.01,34.15 7.13,33.99 8.24,34.19 9.36,34.40 10.35,34.95 11.34,35.50 12.10,36.34 12.87,37.17 13.32,38.21 13.78,39.25 13.88,40.38 13.98,41.51 13.72,42.61 13.45,43.71 12.85,44.67 12.25,45.63 11.37,46.35 10.49,47.07 9.43,47.47 8.37,47.87 8.37,47.87 8.37,47.87 8.94,47.60 9.52,47.33 7.62,49.13 5.73,50.93 4.11,52.55 2.48,54.17 0.32,56.42 -1.83,58.67 -4.22,61.38 -6.60,64.08 -7.97,65.77 -9.34,67.45 -11.33,68.82 -13.32,70.18 -15.50,70.18 -17.68,70.18 -20.21,68.64 -22.75,67.11 -23.42,65.01 -24.09,62.92 -23.92,60.64 -23.74,58.36 -23.11,55.48 -22.48,52.60 -22.18,50.49 -21.89,48.37 -21.37,45.99 -20.85,43.61 -19.78,39.56 -18.70,35.51 -18.14,33.42 -17.57,31.33 -16.05,26.99 -14.53,22.66 -12.69,18.83 -10.85,15.01 -10.01,12.85 -9.18,10.69 -7.49,6.61 -5.79,2.53 -5.43,0.84 -5.07,-0.84 -4.89,-1.44 -4.72,-2.03 -4.41,-2.57 -4.09,-3.10 -3.66,-3.55 -3.23,-3.99 -2.71,-4.32 -2.18,-4.65 -1.59,-4.84 -1.00,-5.04 -0.38,-5.08 0.22,-5.13 0.83,-5.03 1.45,-4.93 2.02,-4.68 2.58,-4.44 3.08,-4.06 3.57,-3.69 3.96,-3.21 4.35,-2.73 4.62,-2.16 4.88,-1.60 5.00,-1.00 5.12,-0.39 5.09,0.22 5.07,0.84 5.07,0.84 L 5.07,0.84 Z"></path></g><g transform="translate(132 457) rotate(0 22.5 3)" stroke="none"><path fill="#1e1e1e" d="M 4.37,-2.62 Q 4.37,-2.62 5.31,-1.23 6.25,0.15 7.95,1.94 9.64,3.73 10.80,5.53 11.96,7.33 13.75,9.58 15.54,11.83 18.65,14.15 21.76,16.48 22.69,18.87 23.61,21.27 21.66,19.73 19.70,18.19 17.70,18.97 15.71,19.75 16.83,17.47 17.95,15.19 19.73,12.88 21.51,10.56 22.67,7.50 23.83,4.43 24.92,2.61 26.01,0.78 27.08,-1.37 28.15,-3.54 28.94,-5.84 29.74,-8.14 30.84,-10.13 31.95,-12.13 33.33,-14.45 34.71,-16.77 36.64,-19.66 38.57,-22.55 39.31,-23.48 40.04,-24.41 41.04,-25.06 42.03,-25.71 43.18,-26.00 44.33,-26.30 45.52,-26.22 46.70,-26.13 47.79,-25.67 48.89,-25.21 49.78,-24.43 50.67,-23.64 51.26,-22.62 51.86,-21.59 52.09,-20.43 52.33,-19.26 52.18,-18.08 52.03,-16.91 51.51,-15.84 50.99,-14.77 50.16,-13.92 49.33,-13.08 48.27,-12.54 47.21,-12.00 46.04,-11.83 44.86,-11.66 43.70,-11.87 42.53,-12.08 41.49,-12.66 40.45,-13.23 39.65,-14.11 38.85,-14.99 38.37,-16.07 37.89,-17.16 37.78,-18.34 37.68,-19.52 37.95,-20.68 38.23,-21.83 38.86,-22.84 39.49,-23.84 40.41,-24.60 41.33,-25.35 42.44,-25.77 43.55,-26.19 44.73,-26.23 45.92,-26.27 47.06,-25.94 48.20,-25.60 49.17,-24.91 50.14,-24.23 50.84,-23.27 51.54,-22.31 51.90,-21.18 52.26,-20.05 52.23,-18.86 52.21,-17.68 51.81,-16.56 51.41,-15.44 51.41,-15.44 51.42,-15.44 50.50,-14.57 49.58,-13.70 47.57,-10.76 45.57,-7.82 44.13,-4.92 42.69,-2.01 41.53,0.96 40.36,3.95 39.44,5.88 38.51,7.82 37.17,10.14 35.83,12.46 34.85,14.82 33.88,17.19 32.25,19.40 30.63,21.60 29.15,24.41 27.67,27.22 25.58,28.90 23.49,30.58 19.25,30.62 15.01,30.67 13.68,27.40 12.35,24.13 10.32,23.23 8.28,22.33 6.82,20.21 5.36,18.08 3.53,16.04 1.71,14.00 1.28,11.90 0.84,9.81 -0.97,7.70 -2.80,5.59 -3.58,4.10 -4.37,2.62 -4.62,2.06 -4.87,1.50 -4.98,0.89 -5.09,0.29 -5.05,-0.32 -5.01,-0.93 -4.83,-1.52 -4.64,-2.11 -4.32,-2.63 -4.00,-3.16 -3.57,-3.59 -3.13,-4.02 -2.60,-4.34 -2.07,-4.66 -1.49,-4.84 -0.90,-5.02 -0.28,-5.05 0.32,-5.09 0.93,-4.98 1.53,-4.86 2.09,-4.61 2.65,-4.35 3.13,-3.97 3.62,-3.59 3.99,-3.11 4.37,-2.62 4.37,-2.62 L 4.37,-2.62 Z"></path></g><g transform="translate(210 485) rotate(0 -18 -24)" stroke="none"><path fill="#1e1e1e" d="M -0.86,5.18 Q -0.86,5.18 -2.60,4.97 -4.33,4.76 -6.99,4.80 -9.64,4.84 -12.12,4.97 -14.60,5.10 -16.92,5.24 -19.23,5.37 -21.53,5.47 -23.83,5.58 -26.63,5.65 -29.44,5.72 -31.78,5.78 -34.12,5.84 -36.79,5.33 -39.47,4.83 -38.57,5.11 -37.68,5.39 -38.51,5.29 -39.34,5.18 -40.13,4.89 -40.91,4.59 -41.61,4.11 -42.30,3.63 -42.85,3.01 -43.41,2.38 -43.80,1.63 -44.19,0.89 -44.39,0.07 -44.59,-0.73 -44.59,-1.57 -44.59,-2.41 -44.39,-3.23 -44.19,-4.04 -43.80,-4.78 -43.41,-5.53 -42.85,-6.16 -42.30,-6.79 -41.60,-7.26 -40.91,-7.74 -40.13,-8.04 -39.34,-8.33 -38.51,-8.44 -37.68,-8.54 -36.92,-11.20 -36.17,-13.86 -34.13,-15.45 -32.09,-17.04 -29.37,-19.82 -26.64,-22.59 -25.10,-24.13 -23.56,-25.67 -21.44,-26.81 -19.32,-27.94 -18.26,-29.85 -17.20,-31.76 -15.21,-33.28 -13.22,-34.81 -11.83,-37.66 -10.43,-40.52 -9.36,-42.51 -8.29,-44.50 -6.71,-46.30 -5.14,-48.10 -4.72,-49.96 -4.31,-51.81 -3.53,-52.72 -2.76,-53.63 -1.73,-54.24 -0.71,-54.86 0.45,-55.11 1.61,-55.36 2.80,-55.23 3.99,-55.10 5.07,-54.60 6.15,-54.09 7.01,-53.27 7.88,-52.45 8.44,-51.39 8.99,-50.33 9.18,-49.16 9.37,-47.98 9.18,-46.80 8.98,-45.62 8.42,-44.57 7.86,-43.52 6.99,-42.70 6.12,-41.88 5.04,-41.38 3.95,-40.88 2.76,-40.75 1.58,-40.63 0.41,-40.89 -0.74,-41.15 -1.76,-41.77 -2.79,-42.38 -3.56,-43.29 -4.33,-44.21 -4.77,-45.32 -5.20,-46.43 -5.27,-47.62 -5.33,-48.81 -5.01,-49.96 -4.68,-51.11 -4.01,-52.10 -3.34,-53.08 -2.39,-53.80 -1.43,-54.52 -0.30,-54.90 0.82,-55.28 2.01,-55.28 3.21,-55.27 4.34,-54.89 5.47,-54.51 6.42,-53.78 7.36,-53.06 8.03,-52.07 8.70,-51.08 9.02,-49.93 9.33,-48.77 9.26,-47.58 9.20,-46.39 8.75,-45.28 8.31,-44.17 8.31,-44.18 8.31,-44.18 8.23,-44.13 8.15,-44.09 6.70,-41.13 5.26,-38.17 3.89,-36.14 2.51,-34.10 0.40,-31.23 -1.70,-28.37 -3.43,-26.04 -5.16,-23.71 -6.73,-22.11 -8.31,-20.51 -9.93,-18.49 -11.55,-16.48 -13.53,-15.38 -15.51,-14.28 -17.28,-12.55 -19.06,-10.82 -20.93,-8.62 -22.80,-6.43 -24.65,-5.01 -26.50,-3.59 -28.09,-1.92 -29.69,-0.24 -31.63,1.91 -33.58,4.07 -35.63,4.73 -37.68,5.39 -38.51,5.29 -39.34,5.18 -40.13,4.89 -40.91,4.59 -41.60,4.11 -42.30,3.64 -42.85,3.01 -43.41,2.38 -43.80,1.63 -44.19,0.89 -44.39,0.08 -44.59,-0.73 -44.59,-1.57 -44.59,-2.41 -44.39,-3.22 -44.19,-4.04 -43.80,-4.78 -43.41,-5.53 -42.85,-6.16 -42.30,-6.78 -41.61,-7.26 -40.91,-7.74 -40.13,-8.04 -39.34,-8.33 -38.51,-8.44 -37.68,-8.54 -35.30,-8.17 -32.93,-7.80 -30.13,-7.74 -27.33,-7.67 -24.79,-7.60 -22.25,-7.52 -19.69,-7.39 -17.13,-7.25 -14.90,-7.13 -12.67,-7.00 -9.94,-6.80 -7.21,-6.60 -4.88,-6.25 -2.56,-5.91 -0.84,-5.55 0.86,-5.18 1.47,-5.00 2.08,-4.83 2.62,-4.51 3.17,-4.19 3.63,-3.75 4.08,-3.31 4.42,-2.77 4.76,-2.23 4.95,-1.63 5.15,-1.03 5.20,-0.39 5.25,0.23 5.15,0.85 5.04,1.48 4.79,2.06 4.54,2.64 4.16,3.15 3.77,3.65 3.28,4.05 2.79,4.45 2.21,4.72 1.64,4.99 1.02,5.12 0.40,5.24 -0.23,5.21 -0.86,5.18 -0.86,5.18 L -0.86,5.18 Z"></path></g><g transform="translate(16 11) rotate(0 -1 37.5)" stroke="none"><path fill="#1e1e1e" d="M 4.26,0 Q 4.26,0 4.04,5.46 3.82,10.92 3.66,20.72 3.50,30.51 3.09,39.04 2.69,47.58 2.48,52.88 2.27,58.19 2.40,61.03 2.53,63.86 2.82,66.27 3.11,68.67 2.79,71.34 2.46,74.01 2.40,74.54 2.33,75.08 2.14,75.58 1.95,76.08 1.64,76.53 1.33,76.97 0.93,77.33 0.52,77.68 0.05,77.93 -0.42,78.18 -0.95,78.31 -1.47,78.43 -2.01,78.43 -2.55,78.43 -3.07,78.30 -3.59,78.17 -4.07,77.92 -4.55,77.67 -4.95,77.31 -5.35,76.95 -5.65,76.50 -5.96,76.06 -6.15,75.56 -6.34,75.05 -6.40,74.52 -6.46,73.98 -5.57,75.78 -4.68,77.57 -5.18,77.05 -5.68,76.52 -5.99,75.87 -6.30,75.22 -6.38,74.50 -6.46,73.78 -6.31,73.07 -6.16,72.36 -5.79,71.74 -5.42,71.12 -4.87,70.65 -4.32,70.18 -3.65,69.91 -2.98,69.64 -2.26,69.59 -1.54,69.55 -0.84,69.74 -0.14,69.93 0.45,70.33 1.05,70.73 1.49,71.31 1.93,71.88 2.17,72.56 2.40,73.25 2.41,73.97 2.41,74.69 2.18,75.38 1.96,76.07 1.52,76.64 1.09,77.22 0.49,77.63 -0.10,78.04 -0.79,78.24 -1.49,78.44 -2.21,78.40 -2.93,78.37 -3.61,78.10 -4.28,77.84 -4.83,77.37 -5.39,76.91 -5.76,76.29 -6.14,75.67 -6.30,74.97 -6.46,74.26 -6.38,73.54 -6.31,72.82 -6.01,72.16 -5.71,71.51 -5.21,70.98 -4.72,70.45 -4.08,70.11 -3.45,69.77 -2.73,69.65 -2.02,69.53 -1.30,69.64 -0.59,69.75 0.93,71.88 2.46,74.01 2.40,74.54 2.33,75.08 2.14,75.58 1.95,76.08 1.64,76.53 1.33,76.97 0.93,77.32 0.52,77.68 0.05,77.93 -0.42,78.18 -0.95,78.31 -1.47,78.43 -2.01,78.43 -2.55,78.43 -3.07,78.30 -3.59,78.17 -4.07,77.92 -4.54,77.67 -4.95,77.31 -5.35,76.95 -5.65,76.51 -5.96,76.06 -6.15,75.56 -6.34,75.05 -6.40,74.52 -6.46,73.98 -5.77,71.29 -5.08,68.59 -4.73,66.16 -4.38,63.73 -4.14,60.89 -3.91,58.05 -3.87,52.70 -3.84,47.35 -3.67,38.93 -3.50,30.51 -3.66,20.72 -3.82,10.92 -4.04,5.46 -4.26,0 -4.20,-0.51 -4.13,-1.02 -3.95,-1.50 -3.77,-1.98 -3.48,-2.40 -3.19,-2.82 -2.80,-3.16 -2.42,-3.50 -1.96,-3.74 -1.51,-3.98 -1.01,-4.10 -0.51,-4.23 0.00,-4.23 0.51,-4.23 1.01,-4.10 1.51,-3.98 1.96,-3.74 2.42,-3.50 2.80,-3.16 3.19,-2.82 3.48,-2.40 3.77,-1.98 3.95,-1.50 4.13,-1.02 4.20,-0.50 4.26,0.00 4.26,0.00 L 4.26,0 Z"></path></g><g transform="translate(16 14) rotate(0 16 34)" stroke="none"><path fill="#1e1e1e" d="M -1.14,-5.15 Q -1.14,-5.15 1.44,-5.72 4.03,-6.30 6.28,-6.96 8.52,-7.62 11.77,-8.16 15.02,-8.71 19.81,-7.24 24.61,-5.77 27.06,-4.44 29.50,-3.10 31.17,0.05 32.84,3.21 33.04,6.37 33.24,9.53 32.38,12.00 31.52,14.48 30.05,16.35 28.58,18.22 26.87,20.32 25.16,22.42 22.63,24.09 20.10,25.76 17.90,26.53 15.70,27.29 12.90,27.85 10.09,28.40 9.44,28.47 8.80,28.54 7.99,28.55 7.19,28.55 6.41,28.37 5.63,28.18 4.91,27.81 4.20,27.44 3.59,26.91 2.99,26.38 2.53,25.72 2.07,25.06 1.78,24.31 1.49,23.56 1.39,22.76 1.28,21.97 1.38,21.17 1.47,20.37 1.75,19.61 2.03,18.86 2.48,18.20 2.94,17.53 3.53,16.99 4.13,16.46 4.84,16.08 5.55,15.70 6.33,15.51 7.11,15.31 10.65,15.71 14.19,16.11 16.79,16.62 19.39,17.13 22.97,17.70 26.56,18.28 29.61,19.29 32.67,20.30 35.39,22.16 38.10,24.03 40.38,27.00 42.66,29.96 43.57,33.82 44.48,37.67 42.97,42.24 41.46,46.80 40.19,50.14 38.92,53.49 37.78,56.30 36.65,59.11 34.51,63.41 32.37,67.70 30.59,69.52 28.81,71.33 25.57,72.73 22.34,74.13 19.72,74.64 17.09,75.14 14.77,75.35 12.46,75.55 9.48,75.97 6.51,76.38 2.97,76.71 -0.55,77.03 -3.81,76.57 -7.06,76.11 -8.01,75.78 -8.96,75.45 -9.75,74.83 -10.55,74.22 -11.10,73.38 -11.66,72.54 -11.92,71.57 -12.17,70.60 -12.11,69.60 -12.04,68.60 -11.66,67.67 -11.28,66.74 -10.62,65.98 -9.96,65.22 -9.10,64.71 -8.23,64.20 -7.25,64.00 -6.27,63.79 -5.27,63.91 -4.27,64.03 -3.36,64.46 -2.46,64.89 -1.73,65.59 -1.01,66.29 -0.55,67.18 -0.09,68.07 0.05,69.07 0.20,70.06 0.03,71.05 -0.13,72.04 -0.61,72.92 -1.09,73.80 -1.83,74.49 -2.57,75.17 -3.48,75.58 -4.40,76.00 -5.40,76.09 -6.40,76.19 -7.38,75.96 -8.35,75.74 -9.21,75.21 -10.06,74.68 -10.71,73.91 -11.35,73.14 -11.71,72.20 -12.07,71.27 -12.12,70.26 -12.16,69.26 -11.88,68.29 -11.60,67.33 -11.03,66.50 -10.46,65.68 -9.65,65.08 -8.84,64.48 -7.89,64.17 -6.93,63.86 -5.93,63.87 -4.92,63.88 -4.93,63.88 -4.93,63.88 -1.58,64.33 1.75,64.77 5.04,64.40 8.33,64.02 11.76,63.91 15.19,63.79 18.20,63.31 21.20,62.82 23.01,60.97 24.83,59.12 25.59,57.12 26.35,55.12 27.25,52.68 28.15,50.25 28.96,46.65 29.78,43.06 30.47,40.77 31.15,38.48 30.41,36.31 29.68,34.13 27.83,32.81 25.98,31.49 23.78,30.77 21.58,30.04 19.44,29.84 17.30,29.64 13.05,29.09 8.80,28.54 7.99,28.55 7.19,28.55 6.41,28.37 5.63,28.18 4.91,27.81 4.20,27.44 3.59,26.91 2.99,26.38 2.53,25.72 2.07,25.06 1.78,24.31 1.49,23.56 1.39,22.76 1.28,21.97 1.38,21.17 1.47,20.37 1.75,19.61 2.03,18.86 2.48,18.20 2.94,17.53 3.53,17.00 4.13,16.46 4.84,16.08 5.55,15.70 6.33,15.51 7.11,15.31 8.42,15.24 9.72,15.17 12.35,14.81 14.99,14.45 16.82,12.17 18.66,9.90 20.37,7.92 22.08,5.95 19.46,4.69 16.84,3.43 14.68,3.10 12.51,2.78 9.41,3.39 6.31,4.00 3.73,4.57 1.14,5.15 0.51,5.21 -0.12,5.27 -0.75,5.18 -1.38,5.09 -1.96,4.85 -2.55,4.61 -3.07,4.24 -3.58,3.86 -4.00,3.38 -4.41,2.89 -4.69,2.32 -4.97,1.75 -5.11,1.13 -5.25,0.51 -5.23,-0.12 -5.22,-0.75 -5.05,-1.37 -4.88,-1.98 -4.58,-2.54 -4.27,-3.09 -3.84,-3.56 -3.40,-4.02 -2.87,-4.37 -2.34,-4.72 -1.74,-4.94 -1.14,-5.15 -1.14,-5.15 L -1.14,-5.15 Z"></path></g><g transform="translate(73 25) rotate(0 -5.5 27.5)" stroke="none"><path fill="#1e1e1e" d="M 4.97,1.35 Q 4.97,1.35 4.03,4.49 3.08,7.63 2.47,9.91 1.86,12.18 1.36,14.43 0.87,16.68 0.39,20.43 -0.08,24.18 -0.17,27.72 -0.26,31.25 -0.28,33.48 -0.29,35.70 -0.59,37.96 -0.88,40.21 -1.68,44.19 -2.48,48.16 -3.08,50.69 -3.68,53.21 -4.33,53.66 -4.98,54.11 -5.20,54.81 -5.42,55.51 -5.81,56.14 -6.19,56.77 -6.71,57.29 -7.23,57.81 -7.86,58.19 -8.50,58.57 -9.20,58.79 -9.90,59.01 -10.64,59.05 -11.37,59.10 -12.10,58.96 -12.82,58.83 -13.49,58.52 -14.17,58.22 -14.75,57.77 -15.32,57.31 -15.78,56.73 -16.23,56.15 -16.53,55.48 -16.83,54.80 -16.97,54.08 -17.10,53.35 -17.05,52.62 -17.01,51.88 -17.06,52.42 -17.11,52.96 -16.94,51.98 -16.78,51.01 -16.31,50.14 -15.84,49.27 -15.12,48.59 -14.39,47.91 -13.49,47.50 -12.59,47.09 -11.61,46.99 -10.63,46.89 -9.66,47.11 -8.70,47.33 -7.85,47.85 -7.01,48.36 -6.37,49.12 -5.74,49.88 -5.38,50.80 -5.02,51.72 -4.97,52.71 -4.92,53.69 -5.19,54.65 -5.46,55.60 -6.02,56.41 -6.58,57.23 -7.38,57.82 -8.17,58.41 -9.11,58.72 -10.04,59.03 -11.03,59.03 -12.02,59.02 -12.96,58.70 -13.89,58.38 -14.68,57.77 -15.46,57.17 -16.01,56.35 -16.56,55.53 -16.82,54.57 -17.08,53.62 -17.02,52.63 -16.96,51.64 -16.58,50.73 -16.21,49.81 -15.57,49.06 -14.92,48.31 -14.07,47.81 -13.22,47.30 -12.25,47.10 -11.29,46.89 -10.30,47.00 -9.32,47.12 -8.43,47.54 -7.53,47.96 -6.82,48.64 -6.10,49.33 -5.65,50.20 -5.19,51.08 -5.09,52.59 -4.98,54.11 -5.20,54.81 -5.42,55.51 -5.81,56.14 -6.19,56.77 -6.71,57.29 -7.23,57.81 -7.86,58.19 -8.49,58.57 -9.20,58.79 -9.90,59.01 -10.64,59.05 -11.37,59.10 -12.10,58.96 -12.82,58.83 -13.49,58.52 -14.17,58.22 -14.75,57.77 -15.32,57.31 -15.78,56.73 -16.23,56.15 -16.53,55.48 -16.83,54.80 -16.97,54.08 -17.10,53.35 -17.05,52.62 -17.01,51.88 -15.92,49.77 -14.83,47.66 -13.73,44.87 -12.62,42.07 -12.12,38.80 -11.61,35.54 -11.56,33.20 -11.52,30.85 -11.40,28.73 -11.28,26.61 -10.60,22.58 -9.93,18.55 -9.56,16.42 -9.20,14.29 -8.56,11.78 -7.92,9.28 -7.23,7.15 -6.53,5.01 -5.75,1.82 -4.97,-1.35 -4.74,-1.93 -4.50,-2.50 -4.14,-3.01 -3.77,-3.51 -3.30,-3.91 -2.82,-4.31 -2.26,-4.59 -1.71,-4.86 -1.10,-5.00 -0.49,-5.13 0.12,-5.12 0.74,-5.10 1.34,-4.94 1.94,-4.77 2.49,-4.47 3.03,-4.17 3.49,-3.74 3.94,-3.32 4.28,-2.80 4.62,-2.28 4.83,-1.69 5.03,-1.11 5.09,-0.49 5.15,0.12 5.06,0.74 4.97,1.35 4.97,1.35 L 4.97,1.35 Z"></path></g><g transform="translate(73 20) rotate(0 10 29)" stroke="none"><path fill="#1e1e1e" d="M 3.95,-1.82 Q 3.95,-1.82 5.50,1.99 7.05,5.81 8.80,9.01 10.54,12.21 12.01,15.87 13.47,19.53 14.65,23.11 15.84,26.68 16.72,30.02 17.60,33.35 18.30,36.50 19.00,39.65 19.58,43.03 20.16,46.42 21.00,48.67 21.85,50.93 22.90,53.24 23.95,55.56 24.02,56.12 24.10,56.69 24.03,57.26 23.96,57.83 23.76,58.36 23.56,58.90 23.24,59.37 22.91,59.84 22.49,60.22 22.06,60.60 21.55,60.87 21.05,61.13 20.49,61.27 19.94,61.41 19.37,61.41 18.80,61.41 18.24,61.28 17.69,61.14 17.18,60.88 16.67,60.62 16.24,60.24 15.81,59.86 15.49,59.39 15.16,58.92 14.96,58.39 14.75,57.85 14.08,55.76 13.41,53.67 13.26,52.90 13.12,52.12 13.22,51.34 13.33,50.56 13.68,49.85 14.04,49.14 14.59,48.58 15.15,48.03 15.86,47.68 16.57,47.33 17.35,47.22 18.13,47.12 18.91,47.27 19.69,47.42 20.37,47.81 21.06,48.20 21.58,48.78 22.11,49.37 22.42,50.10 22.73,50.82 22.80,51.61 22.86,52.40 22.67,53.16 22.47,53.93 22.05,54.60 21.62,55.26 21.01,55.75 20.39,56.25 19.65,56.52 18.91,56.79 18.12,56.81 17.33,56.83 16.57,56.60 15.82,56.36 15.18,55.90 14.54,55.44 14.08,54.80 13.62,54.16 13.39,53.40 13.16,52.65 13.18,51.86 13.20,51.07 13.48,50.33 13.75,49.59 14.25,48.97 14.74,48.36 15.41,47.93 16.07,47.51 16.84,47.32 17.61,47.13 18.39,47.20 19.18,47.26 19.91,47.57 20.63,47.89 21.22,48.42 21.80,48.94 22.19,49.63 22.58,50.32 22.58,50.32 22.58,50.32 23.27,52.94 23.95,55.56 24.02,56.12 24.10,56.69 24.03,57.26 23.96,57.83 23.76,58.36 23.56,58.90 23.24,59.37 22.91,59.84 22.49,60.22 22.06,60.60 21.55,60.87 21.05,61.13 20.49,61.27 19.94,61.41 19.37,61.41 18.80,61.41 18.24,61.28 17.69,61.14 17.18,60.88 16.67,60.62 16.24,60.24 15.82,59.86 15.49,59.39 15.16,58.92 14.96,58.39 14.75,57.85 14.25,55.67 13.75,53.48 12.98,50.62 12.21,47.75 11.68,44.48 11.16,41.22 10.62,38.20 10.09,35.18 9.40,32.12 8.72,29.06 7.59,25.70 6.46,22.35 5.17,19.17 3.88,15.99 1.86,12.56 -0.15,9.13 -2.05,5.48 -3.95,1.82 -4.11,1.32 -4.27,0.82 -4.30,0.30 -4.34,-0.22 -4.25,-0.73 -4.16,-1.25 -3.95,-1.73 -3.74,-2.21 -3.42,-2.63 -3.10,-3.04 -2.69,-3.37 -2.28,-3.70 -1.80,-3.92 -1.33,-4.14 -0.81,-4.24 -0.30,-4.34 0.22,-4.31 0.74,-4.28 1.24,-4.13 1.74,-3.98 2.19,-3.71 2.65,-3.45 3.02,-3.08 3.39,-2.71 3.67,-2.26 3.95,-1.82 3.95,-1.82 L 3.95,-1.82 Z"></path></g><g transform="translate(73 54) rotate(0 9.5 1)" stroke="none"><path fill="#1e1e1e" d="M 0.50,-5.01 Q 0.50,-5.01 3.37,-4.71 6.24,-4.41 9.63,-4.41 13.03,-4.41 15.09,-4.33 17.15,-4.25 18.04,-4.41 18.93,-4.56 19.82,-4.43 20.71,-4.29 21.51,-3.88 22.31,-3.47 22.94,-2.82 23.57,-2.18 23.95,-1.36 24.34,-0.55 24.45,0.34 24.56,1.23 24.38,2.11 24.19,2.99 23.74,3.77 23.28,4.55 22.60,5.14 21.92,5.73 21.09,6.08 20.26,6.42 19.36,6.48 18.46,6.54 17.59,6.31 16.72,6.08 15.97,5.58 15.21,5.08 14.66,4.37 14.11,3.66 13.81,2.81 13.51,1.96 13.50,1.06 13.49,0.16 13.77,-0.69 14.04,-1.54 14.58,-2.27 15.12,-2.99 15.86,-3.51 16.60,-4.02 17.46,-4.27 18.33,-4.52 19.23,-4.49 20.13,-4.45 20.97,-4.12 21.81,-3.80 22.50,-3.22 23.20,-2.65 23.67,-1.88 24.14,-1.12 24.35,-0.24 24.55,0.63 24.46,1.52 24.38,2.42 24.01,3.24 23.64,4.07 23.03,4.73 22.42,5.39 21.63,5.82 20.83,6.25 20.84,6.25 20.84,6.25 17.96,6.35 15.08,6.45 12.35,6.21 9.61,5.97 7.43,5.76 5.25,5.56 2.37,5.28 -0.50,5.01 -1.09,4.87 -1.68,4.74 -2.22,4.47 -2.77,4.20 -3.23,3.81 -3.69,3.41 -4.05,2.92 -4.40,2.43 -4.63,1.87 -4.86,1.30 -4.94,0.70 -5.03,0.10 -4.97,-0.49 -4.91,-1.10 -4.71,-1.67 -4.50,-2.24 -4.17,-2.75 -3.83,-3.25 -3.39,-3.67 -2.94,-4.08 -2.41,-4.37 -1.88,-4.66 -1.29,-4.82 -0.71,-4.98 -0.10,-4.99 0.50,-5.01 0.50,-5.01 L 0.50,-5.01 Z"></path></g><g transform="translate(106 75) rotate(0 8.5 -27.5)" stroke="none"><path fill="#1e1e1e" d="M -5.06,1.26 Q -5.06,1.26 -5.67,-1.02 -6.28,-3.31 -6.65,-5.44 -7.02,-7.56 -7.18,-12.52 -7.34,-17.48 -7.73,-20.88 -8.12,-24.29 -8.40,-28.49 -8.68,-32.69 -7.63,-37.61 -6.58,-42.53 -5.95,-46.19 -5.33,-49.85 -4.78,-53.28 -4.23,-56.72 -3.82,-60.14 -3.42,-63.57 -3.06,-64.53 -2.70,-65.48 -2.49,-66.21 -2.27,-66.94 -1.90,-67.59 -1.52,-68.25 -0.99,-68.79 -0.47,-69.33 0.16,-69.74 0.80,-70.14 1.52,-70.38 2.24,-70.62 2.99,-70.68 3.75,-70.74 4.49,-70.61 5.24,-70.49 5.93,-70.19 6.63,-69.90 7.23,-69.44 7.84,-68.99 8.31,-68.40 8.79,-67.81 9.11,-67.13 9.44,-66.45 9.59,-65.71 9.74,-64.96 9.71,-64.21 9.67,-63.45 11.73,-62.88 13.79,-62.31 16.01,-60.35 18.24,-58.40 20.19,-56.98 22.14,-55.55 23.83,-54.13 25.52,-52.71 27.66,-49.84 29.80,-46.96 30.97,-44.01 32.13,-41.05 32.40,-38.09 32.67,-35.14 32.64,-31.18 32.60,-27.21 32.57,-23.38 32.54,-19.56 32.20,-17.38 31.87,-15.20 30.37,-11.53 28.87,-7.87 27.13,-5.95 25.39,-4.03 23.94,-2.32 22.49,-0.62 21.30,1.22 20.11,3.06 16.16,5.62 12.20,8.18 8.89,9.86 5.59,11.53 2.57,12.85 -0.43,14.17 -3.23,15.06 -6.02,15.95 -6.82,16.03 -7.62,16.10 -8.42,15.98 -9.22,15.87 -9.96,15.56 -10.71,15.25 -11.36,14.78 -12.01,14.30 -12.53,13.69 -13.05,13.07 -13.40,12.35 -13.76,11.62 -13.93,10.84 -14.10,10.05 -14.08,9.24 -14.06,8.44 -13.85,7.66 -13.63,6.88 -13.24,6.18 -12.85,5.48 -12.30,4.89 -11.75,4.30 -11.07,3.86 -10.40,3.42 -9.64,3.15 -8.88,2.89 -11.74,4.97 -14.60,7.05 -14.60,5.97 -14.60,4.89 -14.25,3.86 -13.90,2.84 -13.24,1.98 -12.58,1.12 -11.68,0.51 -10.78,-0.08 -9.74,-0.37 -8.69,-0.65 -7.61,-0.59 -6.53,-0.53 -5.53,-0.12 -4.52,0.27 -3.70,0.98 -2.88,1.68 -2.32,2.61 -1.77,3.54 -1.54,4.60 -1.31,5.66 -1.43,6.73 -1.55,7.81 -2.01,8.79 -2.47,9.77 -3.22,10.56 -3.97,11.34 -4.92,11.84 -5.88,12.35 -6.95,12.52 -8.02,12.69 -9.09,12.51 -10.16,12.33 -11.11,11.82 -12.07,11.31 -12.81,10.52 -13.55,9.73 -14.00,8.74 -14.45,7.76 -14.56,6.68 -14.68,5.61 -14.44,4.55 -14.20,3.49 -13.64,2.57 -13.08,1.64 -12.25,0.94 -11.42,0.25 -10.42,-0.14 -9.41,-0.54 -8.33,-0.59 -7.24,-0.65 -6.20,-0.35 -5.16,-0.06 -4.27,0.54 -3.37,1.15 -2.72,2.02 -2.07,2.88 -1.73,3.91 -1.39,4.94 -1.39,4.94 -1.39,4.94 -3.70,10.44 -6.02,15.95 -6.82,16.03 -7.62,16.10 -8.42,15.98 -9.22,15.87 -9.96,15.56 -10.71,15.25 -11.36,14.78 -12.01,14.30 -12.53,13.69 -13.05,13.07 -13.40,12.35 -13.76,11.62 -13.93,10.84 -14.10,10.05 -14.08,9.24 -14.06,8.44 -13.85,7.66 -13.63,6.88 -13.24,6.18 -12.85,5.48 -12.30,4.89 -11.75,4.30 -11.07,3.86 -10.40,3.42 -9.64,3.15 -8.88,2.89 -7.35,2.51 -5.83,2.13 -3.09,0.97 -0.36,-0.19 2.77,-1.83 5.91,-3.48 8.02,-4.70 10.14,-5.92 12.03,-8.59 13.91,-11.26 15.62,-12.76 17.33,-14.25 18.39,-16.92 19.45,-19.58 19.40,-23.37 19.36,-27.16 19.30,-29.30 19.25,-31.44 19.25,-35.03 19.25,-38.63 17.84,-41.33 16.44,-44.03 13.34,-46.21 10.24,-48.40 8.56,-50.11 6.88,-51.81 5.06,-53.23 3.23,-54.64 1.90,-56.34 0.58,-58.03 -1.05,-61.76 -2.70,-65.48 -2.49,-66.21 -2.27,-66.94 -1.90,-67.59 -1.52,-68.24 -0.99,-68.79 -0.47,-69.33 0.16,-69.74 0.80,-70.14 1.52,-70.38 2.24,-70.62 2.99,-70.68 3.74,-70.74 4.49,-70.61 5.24,-70.49 5.93,-70.20 6.63,-69.90 7.23,-69.44 7.84,-68.99 8.31,-68.40 8.79,-67.81 9.11,-67.13 9.44,-66.45 9.59,-65.71 9.74,-64.96 9.71,-64.21 9.67,-63.45 9.07,-62.03 8.46,-60.60 8.06,-58.06 7.65,-55.52 7.36,-53.16 7.08,-50.81 6.19,-47.51 5.31,-44.21 4.93,-41.93 4.55,-39.64 3.69,-36.29 2.84,-32.93 2.92,-29.46 2.99,-25.98 3.23,-21.81 3.47,-17.64 3.59,-14.78 3.71,-11.91 3.84,-8.90 3.98,-5.88 4.52,-3.57 5.06,-1.26 5.14,-0.64 5.22,-0.01 5.15,0.60 5.07,1.23 4.85,1.82 4.63,2.41 4.27,2.93 3.92,3.45 3.45,3.87 2.98,4.29 2.42,4.58 1.86,4.87 1.25,5.03 0.64,5.18 0.01,5.18 -0.61,5.18 -1.22,5.04 -1.83,4.89 -2.39,4.60 -2.95,4.30 -3.42,3.89 -3.89,3.47 -4.25,2.96 -4.61,2.44 -4.84,1.85 -5.06,1.26 -5.06,1.26 L -5.06,1.26 Z"></path></g><g transform="translate(171 22) rotate(0 -9 27)" stroke="none"><path fill="#1e1e1e" d="M 0,5.25 Q 0,5.25 -3.14,5.17 -6.28,5.09 -9.11,6.18 -11.94,7.26 -14.53,9.07 -17.11,10.89 -18.62,13.01 -20.13,15.14 -20.96,17.09 -21.79,19.05 -22.19,21.24 -22.59,23.43 -23.02,25.96 -23.45,28.50 -23.53,32.42 -23.60,36.35 -22.39,39.12 -21.19,41.89 -19.09,43.58 -17.00,45.28 -14.23,46.09 -11.46,46.90 -8.72,46.49 -5.99,46.08 -4.12,43.81 -2.26,41.53 -1.21,39.11 -0.16,36.68 0.84,34.48 1.85,32.27 2.75,30.30 3.66,28.33 4.25,25.85 4.84,23.37 4.91,20.47 4.98,17.57 4.95,15.22 4.93,12.87 2.55,11.93 0.17,11.00 -2.55,10.17 -5.29,9.34 -8.26,9.23 -11.23,9.13 -12.37,8.90 -13.50,8.68 -14.50,8.10 -15.50,7.53 -16.27,6.66 -17.03,5.80 -17.48,4.74 -17.93,3.67 -18.02,2.52 -18.10,1.37 -17.82,0.25 -17.53,-0.86 -16.90,-1.83 -16.28,-2.80 -15.37,-3.51 -14.47,-4.23 -13.38,-4.62 -12.29,-5.01 -11.14,-5.04 -9.99,-5.06 -8.88,-4.71 -7.78,-4.37 -6.85,-3.69 -5.92,-3.01 -5.25,-2.07 -4.58,-1.12 -4.25,-0.02 -3.92,1.08 -3.96,2.23 -4.00,3.39 -4.40,4.47 -4.81,5.55 -5.54,6.44 -6.26,7.34 -7.24,7.95 -8.22,8.57 -9.34,8.84 -10.46,9.11 -11.61,9.01 -12.76,8.91 -13.82,8.45 -14.88,7.98 -15.73,7.21 -16.59,6.43 -17.15,5.42 -17.71,4.41 -17.92,3.28 -18.13,2.14 -17.97,1.00 -17.80,-0.14 -17.28,-1.17 -16.76,-2.20 -15.94,-3.01 -15.12,-3.82 -14.08,-4.32 -13.04,-4.83 -11.90,-4.98 -10.75,-5.13 -10.75,-5.13 -10.76,-5.13 -5.95,-4.68 -1.13,-4.24 1.08,-3.59 3.31,-2.94 5.59,-1.98 7.88,-1.01 9.98,0.31 12.08,1.65 14.40,3.55 16.72,5.46 17.89,9.18 19.06,12.90 19.01,15.34 18.96,17.77 18.89,20.47 18.81,23.17 18.39,25.92 17.96,28.67 17.36,31.12 16.76,33.57 15.12,36.82 13.48,40.08 12.63,42.28 11.78,44.49 9.93,47.77 8.09,51.05 6.54,52.98 4.99,54.92 3.22,56.41 1.45,57.90 -1.40,59.02 -4.26,60.13 -8.03,60.37 -11.79,60.61 -14.41,60.03 -17.03,59.45 -19.27,58.91 -21.51,58.36 -23.72,57.12 -25.94,55.88 -28.66,53.16 -31.39,50.45 -32.75,48.07 -34.10,45.69 -35.25,42.13 -36.40,38.56 -36.36,35.57 -36.33,32.59 -36.34,30.20 -36.35,27.82 -35.63,24.59 -34.90,21.36 -34.15,18.65 -33.40,15.95 -32.25,13.57 -31.09,11.19 -28.92,8.28 -26.74,5.38 -24.92,3.46 -23.10,1.55 -21.17,0.37 -19.23,-0.80 -15.64,-2.34 -12.05,-3.88 -9.20,-4.49 -6.36,-5.09 -3.18,-5.17 0,-5.25 0.62,-5.17 1.25,-5.09 1.84,-4.87 2.44,-4.65 2.96,-4.29 3.48,-3.93 3.90,-3.45 4.32,-2.98 4.61,-2.42 4.91,-1.86 5.06,-1.24 5.21,-0.63 5.21,0.00 5.21,0.63 5.06,1.24 4.91,1.86 4.61,2.42 4.32,2.98 3.90,3.45 3.48,3.93 2.96,4.29 2.44,4.65 1.84,4.87 1.25,5.10 0.62,5.17 -0.00,5.25 -0.00,5.25 L 0,5.25 Z"></path></g><g transform="translate(261 21) rotate(0 -5 31.5)" stroke="none"><path fill="#1e1e1e" d="M 4.16,0.52 Q 4.16,0.52 3.38,5.09 2.60,9.66 2.09,13.12 1.57,16.57 1.52,18.78 1.46,20.99 1.18,23.55 0.89,26.11 0.31,29.91 -0.27,33.71 -1.42,37.45 -2.58,41.19 -3.34,44.71 -4.10,48.22 -4.71,51.76 -5.33,55.30 -5.43,57.72 -5.54,60.14 -5.68,60.61 -5.82,61.09 -6.07,61.52 -6.32,61.95 -6.67,62.31 -7.02,62.67 -7.44,62.93 -7.86,63.20 -8.33,63.35 -8.81,63.51 -9.30,63.55 -9.80,63.59 -10.29,63.50 -10.78,63.42 -11.24,63.23 -11.70,63.03 -12.10,62.73 -12.49,62.43 -12.81,62.04 -13.12,61.65 -13.33,61.20 -13.54,60.75 -13.64,60.26 -13.74,59.77 -13.72,59.28 -13.69,58.78 -13.89,57.49 -14.10,56.20 -14.02,55.54 -13.95,54.88 -13.66,54.28 -13.38,53.68 -12.92,53.20 -12.47,52.72 -11.88,52.41 -11.29,52.10 -10.63,51.99 -9.98,51.89 -9.32,52.00 -8.67,52.11 -8.08,52.42 -7.50,52.74 -7.04,53.22 -6.59,53.71 -6.31,54.31 -6.03,54.91 -5.97,55.57 -5.90,56.23 -6.04,56.88 -6.19,57.53 -6.53,58.10 -6.88,58.67 -7.39,59.09 -7.89,59.52 -8.51,59.77 -9.13,60.01 -9.79,60.04 -10.46,60.07 -11.10,59.89 -11.73,59.71 -12.28,59.34 -12.83,58.96 -13.23,58.43 -13.63,57.90 -13.84,57.27 -14.05,56.64 -14.05,55.98 -14.04,55.31 -13.83,54.68 -13.61,54.06 -13.21,53.53 -12.81,53.00 -12.25,52.63 -11.70,52.26 -11.06,52.09 -10.42,51.91 -9.76,51.95 -9.10,51.99 -8.48,52.24 -7.86,52.49 -7.36,52.92 -6.85,53.35 -6.51,53.92 -6.17,54.49 -6.03,55.14 -5.89,55.79 -5.89,55.79 -5.89,55.79 -5.72,57.96 -5.54,60.14 -5.68,60.61 -5.82,61.09 -6.07,61.52 -6.32,61.95 -6.67,62.31 -7.02,62.67 -7.44,62.93 -7.86,63.20 -8.33,63.35 -8.81,63.51 -9.30,63.55 -9.80,63.59 -10.29,63.50 -10.78,63.42 -11.24,63.23 -11.70,63.03 -12.10,62.73 -12.49,62.43 -12.81,62.04 -13.12,61.65 -13.33,61.20 -13.54,60.75 -13.64,60.26 -13.74,59.77 -13.72,59.28 -13.69,58.78 -13.29,56.41 -12.89,54.04 -12.30,50.38 -11.72,46.72 -11.01,42.76 -10.29,38.79 -9.34,35.77 -8.39,32.74 -8.08,28.74 -7.76,24.74 -7.27,22.46 -6.79,20.18 -6.40,17.78 -6.00,15.39 -5.45,12.06 -4.90,8.73 -4.53,4.10 -4.16,-0.52 -4.04,-1.01 -3.92,-1.50 -3.68,-1.95 -3.44,-2.39 -3.11,-2.77 -2.77,-3.15 -2.35,-3.43 -1.93,-3.72 -1.46,-3.90 -0.99,-4.08 -0.48,-4.14 0.01,-4.19 0.51,-4.13 1.01,-4.07 1.49,-3.89 1.96,-3.71 2.38,-3.42 2.79,-3.13 3.13,-2.75 3.46,-2.37 3.69,-1.92 3.93,-1.47 4.05,-0.98 4.17,-0.49 4.16,0.01 4.16,0.52 4.16,0.52 L 4.16,0.52 Z"></path></g><g transform="translate(265 18) rotate(0 -10 28.5)" stroke="none"><path fill="#1e1e1e" d="M 2.09,-4.87 Q 2.09,-4.87 4.11,-4.05 6.14,-3.23 9.22,-2.20 12.30,-1.17 14.79,-0.50 17.29,0.16 19.49,3.50 21.69,6.84 21.45,9.07 21.22,11.30 19.78,13.62 18.35,15.94 16.91,17.54 15.48,19.14 13.69,20.92 11.89,22.70 9.29,24.59 6.69,26.47 2.35,27.87 -1.98,29.28 -4.27,29.92 -6.56,30.57 -7.33,31.26 -8.10,31.95 -8.70,32.32 -9.31,32.68 -9.98,32.89 -10.66,33.09 -11.36,33.13 -12.07,33.17 -12.76,33.04 -13.45,32.91 -14.10,32.62 -14.74,32.32 -15.29,31.89 -15.84,31.45 -16.28,30.89 -16.71,30.33 -17.00,29.69 -17.28,29.04 -17.41,28.35 -17.53,27.65 -17.48,26.95 -17.44,26.25 -17.22,25.57 -17.01,24.90 -16.64,24.30 -16.27,23.70 -15.77,23.20 -15.27,22.70 -11.95,22.48 -8.62,22.25 -5.98,22.81 -3.34,23.38 0.99,24.43 5.33,25.48 7.45,26.01 9.58,26.53 11.95,27.04 14.33,27.55 18.12,28.81 21.91,30.06 23.58,31.81 25.24,33.57 26.28,36.31 27.31,39.05 27.58,41.17 27.85,43.30 26.87,46.69 25.89,50.08 24.33,52.50 22.77,54.91 20.47,56.90 18.16,58.88 15.74,59.93 13.32,60.99 8.36,61.00 3.39,61.02 -7.68,60.78 -18.77,60.53 -25.35,60.59 -31.94,60.65 -34.46,60.90 -36.99,61.15 -38.87,61.38 -40.74,61.62 -41.48,61.54 -42.23,61.46 -42.91,61.15 -43.59,60.83 -44.14,60.32 -44.68,59.80 -45.03,59.14 -45.38,58.48 -45.50,57.74 -45.63,57.00 -45.51,56.26 -45.39,55.52 -45.04,54.86 -44.68,54.20 -44.14,53.68 -43.60,53.16 -42.92,52.85 -42.24,52.53 -41.49,52.45 -40.75,52.37 -40.02,52.53 -39.28,52.69 -38.64,53.08 -38.00,53.46 -37.51,54.03 -37.03,54.60 -36.75,55.30 -36.47,56.00 -36.43,56.74 -36.39,57.49 -36.59,58.21 -36.79,58.94 -37.21,59.56 -37.63,60.18 -38.23,60.63 -38.82,61.09 -39.53,61.33 -40.24,61.57 -40.99,61.57 -41.74,61.57 -42.45,61.33 -43.16,61.09 -43.76,60.64 -44.36,60.18 -44.78,59.56 -45.20,58.94 -45.40,58.22 -45.60,57.50 -45.56,56.75 -45.52,56.00 -45.24,55.31 -44.97,54.61 -44.48,54.04 -44.00,53.47 -43.35,53.08 -42.71,52.69 -41.98,52.53 -41.25,52.37 -41.25,52.37 -41.25,52.37 -39.36,52.40 -37.47,52.42 -34.91,52.39 -32.35,52.36 -25.60,51.76 -18.85,51.16 -8.04,50.71 2.77,50.26 6.75,49.74 10.73,49.21 12.58,47.45 14.42,45.70 15.11,43.37 15.80,41.03 13.94,39.99 12.09,38.95 7.55,37.96 3.02,36.97 0.23,36.46 -2.54,35.95 -4.64,35.38 -6.73,34.81 -9.77,33.99 -12.81,33.17 -10.45,32.56 -8.10,31.95 -8.70,32.32 -9.31,32.68 -9.98,32.89 -10.66,33.09 -11.36,33.13 -12.07,33.17 -12.76,33.04 -13.45,32.91 -14.09,32.62 -14.74,32.32 -15.29,31.89 -15.84,31.45 -16.28,30.89 -16.71,30.33 -17.00,29.69 -17.28,29.04 -17.41,28.35 -17.53,27.65 -17.48,26.95 -17.44,26.25 -17.22,25.57 -17.01,24.90 -16.64,24.30 -16.27,23.70 -15.77,23.20 -15.27,22.70 -13.44,21.45 -11.62,20.20 -8.64,19.60 -5.66,19.00 -2.99,17.89 -0.32,16.78 1.38,15.46 3.09,14.14 4.68,12.44 6.26,10.74 8.92,10.46 11.58,10.19 9.46,9.60 7.34,9.01 4.62,7.85 1.90,6.68 -0.09,5.78 -2.09,4.87 -2.64,4.55 -3.19,4.23 -3.65,3.79 -4.11,3.34 -4.45,2.80 -4.79,2.26 -5.00,1.65 -5.20,1.05 -5.25,0.41 -5.30,-0.22 -5.19,-0.85 -5.09,-1.48 -4.84,-2.07 -4.59,-2.66 -4.20,-3.17 -3.81,-3.68 -3.32,-4.08 -2.82,-4.49 -2.24,-4.76 -1.66,-5.03 -1.04,-5.16 -0.41,-5.29 0.22,-5.26 0.86,-5.23 1.47,-5.05 2.09,-4.87 2.09,-4.87 L 2.09,-4.87 Z"></path></g><g transform="translate(310 21) rotate(0 -5 28)" stroke="none"><path fill="#1e1e1e" d="M 4.46,1.11 Q 4.46,1.11 3.97,3.43 3.48,5.75 3.05,9.30 2.63,12.84 2.21,15.20 1.80,17.55 0.50,21.32 -0.79,25.08 -1.55,28.16 -2.31,31.23 -2.64,34.32 -2.98,37.40 -3.42,40.66 -3.87,43.91 -4.30,46.78 -4.74,49.65 -4.52,50.71 -4.31,51.78 -4.47,52.33 -4.63,52.88 -4.92,53.37 -5.21,53.87 -5.61,54.28 -6.01,54.69 -6.49,55.00 -6.98,55.30 -7.52,55.48 -8.07,55.66 -8.64,55.70 -9.21,55.74 -9.77,55.65 -10.34,55.56 -10.87,55.33 -11.39,55.10 -11.85,54.75 -12.31,54.41 -12.67,53.96 -13.03,53.52 -13.27,53.00 -13.51,52.48 -13.62,51.92 -13.74,51.35 -13.71,50.78 -13.68,50.21 -13.10,49.00 -12.51,47.79 -11.90,47.31 -11.30,46.84 -10.58,46.58 -9.85,46.32 -9.08,46.30 -8.31,46.29 -7.58,46.52 -6.85,46.75 -6.23,47.21 -5.61,47.66 -5.16,48.29 -4.72,48.92 -4.50,49.66 -4.28,50.39 -4.31,51.16 -4.33,51.93 -4.60,52.65 -4.88,53.37 -5.36,53.97 -5.85,54.56 -6.50,54.97 -7.15,55.38 -7.90,55.56 -8.65,55.74 -9.41,55.67 -10.18,55.60 -10.89,55.29 -11.59,54.98 -12.16,54.46 -12.73,53.94 -13.10,53.27 -13.47,52.60 -13.61,51.84 -13.75,51.08 -13.64,50.32 -13.53,49.56 -13.18,48.87 -12.83,48.19 -12.28,47.65 -11.74,47.11 -11.04,46.77 -10.35,46.44 -9.59,46.34 -8.83,46.24 -8.07,46.39 -7.32,46.55 -6.65,46.93 -5.98,47.31 -5.48,47.89 -4.97,48.47 -4.67,49.18 -4.37,49.89 -4.32,50.65 -4.26,51.42 -4.45,52.17 -4.64,52.91 -4.47,52.35 -4.31,51.78 -4.47,52.33 -4.63,52.88 -4.92,53.37 -5.21,53.87 -5.61,54.28 -6.01,54.69 -6.49,55.00 -6.98,55.30 -7.52,55.48 -8.07,55.66 -8.64,55.70 -9.21,55.74 -9.77,55.65 -10.34,55.56 -10.87,55.33 -11.39,55.10 -11.85,54.75 -12.31,54.41 -12.67,53.96 -13.03,53.52 -13.27,53.00 -13.51,52.48 -13.62,51.92 -13.74,51.35 -13.71,50.78 -13.68,50.21 -13.78,49.16 -13.87,48.12 -13.38,45.42 -12.88,42.72 -12.48,39.64 -12.09,36.56 -11.79,32.86 -11.50,29.16 -10.79,25.75 -10.08,22.34 -9.27,18.94 -8.45,15.55 -7.96,13.25 -7.47,10.95 -6.63,7.19 -5.78,3.44 -5.12,1.16 -4.46,-1.11 -4.26,-1.63 -4.07,-2.15 -3.75,-2.60 -3.43,-3.06 -3.02,-3.43 -2.60,-3.79 -2.11,-4.05 -1.61,-4.31 -1.07,-4.44 -0.53,-4.57 0.01,-4.57 0.57,-4.56 1.10,-4.43 1.64,-4.30 2.13,-4.04 2.62,-3.78 3.04,-3.41 3.45,-3.04 3.77,-2.58 4.08,-2.12 4.28,-1.60 4.47,-1.08 4.54,-0.53 4.60,0.01 4.53,0.56 4.46,1.11 4.46,1.11 L 4.46,1.11 Z"></path></g><g transform="translate(313 27) rotate(0 4 21)" stroke="none"><path fill="#1e1e1e" d="M 4.28,-2.57 Q 4.28,-2.57 5.94,0.35 7.59,3.27 8.57,5.36 9.56,7.44 10.31,9.53 11.05,11.62 11.64,14.74 12.24,17.85 12.48,21.06 12.72,24.27 12.79,27.36 12.87,30.44 12.98,32.60 13.10,34.75 13.14,37.82 13.19,40.89 13.07,41.72 12.95,42.55 12.57,43.30 12.19,44.05 11.60,44.64 11.00,45.23 10.24,45.60 9.49,45.97 8.65,46.08 7.82,46.19 7.00,46.02 6.17,45.86 5.44,45.44 4.71,45.02 4.16,44.39 3.60,43.76 3.27,42.99 2.95,42.22 2.88,41.38 2.82,40.54 3.03,39.73 3.24,38.91 3.69,38.21 4.15,37.50 4.81,36.98 5.47,36.46 6.26,36.17 7.05,35.89 7.89,35.87 8.73,35.85 9.53,36.10 10.33,36.36 11.01,36.85 11.69,37.35 12.18,38.03 12.66,38.72 12.91,39.52 13.15,40.33 13.12,41.17 13.09,42.01 12.80,42.79 12.50,43.58 11.97,44.23 11.44,44.88 10.73,45.33 10.02,45.78 9.20,45.98 8.38,46.18 7.55,46.10 6.71,46.03 5.94,45.69 5.17,45.35 4.55,44.79 3.92,44.22 3.52,43.49 3.11,42.75 2.95,41.93 2.80,41.10 2.80,41.10 2.80,41.10 2.82,35.94 2.83,30.77 2.71,27.92 2.59,25.07 2.37,22.42 2.15,19.78 1.66,17.25 1.17,14.71 0.23,11.47 -0.69,8.22 -2.49,5.39 -4.28,2.57 -4.53,2.02 -4.78,1.47 -4.88,0.87 -4.99,0.28 -4.95,-0.31 -4.91,-0.91 -4.73,-1.49 -4.55,-2.06 -4.24,-2.58 -3.92,-3.09 -3.49,-3.52 -3.07,-3.94 -2.55,-4.25 -2.03,-4.56 -1.46,-4.74 -0.88,-4.92 -0.28,-4.95 0.31,-4.99 0.91,-4.88 1.50,-4.77 2.05,-4.52 2.60,-4.27 3.07,-3.89 3.54,-3.52 3.91,-3.04 4.28,-2.57 4.28,-2.57 L 4.28,-2.57 Z"></path></g><g transform="translate(309 52) rotate(0 8 -0.5)" stroke="none"><path fill="#1e1e1e" d="M 0,-4.68 Q 0,-4.68 3.73,-4.54 7.47,-4.41 9.62,-4.52 11.77,-4.64 13.32,-5.17 14.87,-5.71 15.65,-5.76 16.44,-5.82 17.19,-5.62 17.95,-5.43 18.61,-5.00 19.27,-4.57 19.75,-3.95 20.24,-3.34 20.50,-2.60 20.76,-1.86 20.77,-1.08 20.79,-0.29 20.55,0.44 20.31,1.19 19.85,1.82 19.39,2.45 18.75,2.91 18.10,3.36 17.35,3.58 16.60,3.80 15.82,3.77 15.03,3.74 14.30,3.47 13.57,3.19 12.96,2.69 12.36,2.19 11.94,1.53 11.53,0.86 11.34,0.10 11.16,-0.65 11.23,-1.43 11.31,-2.21 11.62,-2.93 11.94,-3.65 12.47,-4.22 13.00,-4.80 13.68,-5.18 14.37,-5.56 15.14,-5.70 15.91,-5.84 16.69,-5.73 17.46,-5.61 18.16,-5.26 18.86,-4.90 19.41,-4.34 19.96,-3.78 20.30,-3.08 20.64,-2.37 20.74,-1.59 20.84,-0.81 20.68,-0.05 20.53,0.71 20.13,1.39 19.74,2.07 19.15,2.59 18.56,3.10 17.84,3.41 17.12,3.71 17.12,3.71 17.12,3.71 14.47,4.17 11.83,4.64 9.65,4.52 7.47,4.41 3.73,4.54 0,4.68 -0.56,4.61 -1.12,4.54 -1.64,4.34 -2.17,4.14 -2.64,3.82 -3.10,3.50 -3.48,3.08 -3.85,2.66 -4.11,2.16 -4.37,1.66 -4.51,1.11 -4.64,0.56 -4.64,-0.00 -4.64,-0.56 -4.51,-1.11 -4.37,-1.66 -4.11,-2.16 -3.85,-2.66 -3.47,-3.08 -3.10,-3.50 -2.64,-3.82 -2.17,-4.14 -1.64,-4.34 -1.12,-4.54 -0.55,-4.61 0.00,-4.68 0.00,-4.68 L 0,-4.68 Z"></path></g><g transform="translate(337 64) rotate(0 2 -23)" stroke="none"><path fill="#1e1e1e" d="M -4.39,1.99 Q -4.39,1.99 -5.74,-1.20 -7.09,-4.40 -8.11,-7.43 -9.12,-10.45 -9.66,-13.11 -10.21,-15.77 -10.46,-18.42 -10.71,-21.07 -10.64,-24.81 -10.58,-28.55 -10.65,-31.26 -10.73,-33.97 -10.79,-36.56 -10.86,-39.16 -10.91,-41.70 -10.96,-44.25 -10.73,-46.57 -10.50,-48.90 -8.96,-52.05 -7.43,-55.20 -5.06,-55.92 -2.70,-56.64 -0.39,-56.06 1.91,-55.48 3.73,-53.64 5.56,-51.81 7.63,-49.78 9.71,-47.75 11.66,-46.35 13.62,-44.95 14.91,-42.13 16.20,-39.31 17.15,-37.25 18.10,-35.19 18.57,-32.71 19.04,-30.23 19.20,-26.40 19.37,-22.58 19.41,-19.62 19.46,-16.67 18.67,-14.11 17.88,-11.55 16.18,-8.85 14.47,-6.16 13.32,-4.16 12.17,-2.17 11.03,-0.28 9.88,1.59 6.28,4.76 2.67,7.92 0.34,8.68 -1.99,9.43 -3.28,9.77 -4.58,10.11 -5.27,10.47 -5.97,10.83 -6.72,11.01 -7.48,11.20 -8.26,11.19 -9.04,11.19 -9.80,11.00 -10.56,10.81 -11.25,10.44 -11.94,10.08 -12.52,9.56 -13.10,9.04 -13.54,8.39 -13.98,7.75 -14.25,7.02 -14.53,6.29 -14.62,5.51 -14.71,4.74 -14.61,3.96 -14.51,3.19 -14.23,2.46 -13.95,1.73 -13.51,1.09 -13.06,0.45 -12.47,-0.06 -11.89,-0.57 -8.01,-0.58 -4.13,-0.59 -4.70,-1.80 -5.28,-3.00 -4.66,-3.76 -4.04,-4.53 -3.21,-5.06 -2.38,-5.58 -1.43,-5.82 -0.47,-6.05 0.50,-5.97 1.48,-5.89 2.38,-5.50 3.28,-5.11 4.01,-4.45 4.74,-3.79 5.22,-2.93 5.70,-2.08 5.89,-1.11 6.07,-0.14 5.93,0.82 5.80,1.79 5.36,2.67 4.92,3.55 4.22,4.25 3.53,4.94 2.65,5.37 1.76,5.81 0.79,5.94 -0.17,6.07 -1.14,5.88 -2.11,5.69 -2.96,5.21 -3.81,4.72 -4.47,3.99 -5.12,3.25 -5.51,2.35 -5.90,1.45 -5.97,0.47 -6.05,-0.50 -5.81,-1.46 -5.57,-2.41 -5.04,-3.24 -4.51,-4.06 -3.74,-4.68 -2.97,-5.29 -2.05,-5.63 -1.12,-5.97 -0.14,-5.99 0.83,-6.01 1.77,-5.72 2.71,-5.43 3.51,-4.86 4.30,-4.28 4.87,-3.48 5.45,-2.68 5.73,-1.74 6.02,-0.80 5.99,0.17 5.96,1.16 5.62,2.08 5.28,3.00 5.28,3.00 5.28,3.00 2.54,6.66 -0.19,10.32 -4.40,10.93 -8.61,11.55 -6.60,10.83 -4.58,10.11 -5.27,10.47 -5.96,10.83 -6.72,11.01 -7.48,11.20 -8.26,11.19 -9.04,11.19 -9.80,11.00 -10.56,10.81 -11.25,10.44 -11.94,10.08 -12.52,9.56 -13.10,9.04 -13.54,8.39 -13.98,7.75 -14.25,7.02 -14.53,6.29 -14.62,5.51 -14.71,4.74 -14.61,3.96 -14.51,3.19 -14.23,2.46 -13.95,1.73 -13.51,1.09 -13.06,0.45 -12.48,-0.06 -11.89,-0.57 -9.61,-1.51 -7.32,-2.45 -4.58,-2.89 -1.83,-3.34 -0.27,-5.73 1.27,-8.13 2.45,-10.41 3.63,-12.68 5.07,-15.96 6.51,-19.24 6.49,-22.32 6.46,-25.40 5.92,-28.97 5.37,-32.54 4.54,-35.03 3.71,-37.52 1.42,-39.60 -0.87,-41.68 -2.54,-43.82 -4.21,-45.96 -1.96,-47.15 0.28,-48.35 -0.36,-46.30 -1.01,-44.25 -1.05,-41.73 -1.10,-39.20 -1.13,-36.64 -1.17,-34.07 -1.19,-31.40 -1.21,-28.73 -1.01,-25.23 -0.80,-21.74 -0.51,-17.52 -0.21,-13.31 0.56,-10.77 1.34,-8.24 2.86,-5.11 4.39,-1.99 4.56,-1.44 4.74,-0.88 4.77,-0.30 4.81,0.27 4.71,0.84 4.60,1.41 4.37,1.94 4.13,2.47 3.77,2.93 3.42,3.39 2.96,3.75 2.51,4.11 1.98,4.35 1.45,4.59 0.88,4.70 0.30,4.81 -0.27,4.78 -0.85,4.74 -1.40,4.57 -1.96,4.40 -2.46,4.10 -2.96,3.80 -3.37,3.39 -3.78,2.98 -4.08,2.49 -4.39,1.99 -4.39,1.99 L -4.39,1.99 Z"></path></g><g transform="translate(393 27) rotate(0 -6.5 26)" stroke="none"><path fill="#1e1e1e" d="M 0,5.30 Q 0,5.30 -2.58,5.30 -5.17,5.31 -7.41,5.35 -9.65,5.38 -11.71,6.30 -13.77,7.21 -14.78,9.25 -15.79,11.29 -16.62,14.08 -17.46,16.88 -18.28,19.02 -19.09,21.17 -19.34,23.30 -19.60,25.42 -19.71,28.60 -19.82,31.78 -19.20,33.96 -18.58,36.15 -16.43,39.18 -14.28,42.22 -12.19,43.89 -10.11,45.55 -8.01,43.95 -5.91,42.35 -3.98,40.46 -2.04,38.56 -0.28,36.59 1.46,34.61 3.03,32.94 4.60,31.27 5.18,29.22 5.76,27.17 6.05,23.63 6.35,20.09 5.61,17.10 4.87,14.10 2.76,13.61 0.64,13.12 -1.01,13.36 -2.67,13.59 -3.78,13.79 -4.90,13.98 -6.02,13.82 -7.13,13.65 -8.14,13.13 -9.15,12.62 -9.94,11.81 -10.73,11.00 -11.21,9.98 -11.70,8.96 -11.84,7.84 -11.98,6.71 -11.75,5.61 -11.52,4.50 -10.95,3.52 -10.39,2.54 -9.53,1.80 -8.68,1.06 -7.64,0.62 -6.59,0.19 -5.46,0.11 -4.34,0.04 -3.24,0.32 -2.15,0.61 -1.20,1.23 -0.26,1.85 0.43,2.74 1.13,3.64 1.50,4.70 1.88,5.77 1.89,6.90 1.91,8.03 1.56,9.11 1.22,10.18 0.54,11.09 -0.12,12.00 -1.05,12.65 -1.97,13.30 -3.06,13.62 -4.14,13.93 -5.27,13.89 -6.40,13.84 -7.46,13.44 -8.52,13.03 -9.39,12.31 -10.26,11.59 -10.86,10.63 -11.45,9.67 -11.71,8.57 -11.97,7.47 -11.86,6.34 -11.76,5.22 -11.29,4.18 -10.83,3.15 -10.07,2.32 -9.30,1.49 -8.31,0.95 -7.32,0.40 -7.32,0.40 -7.32,0.40 -2.29,-0.02 2.72,-0.45 5.24,0.31 7.76,1.08 10.53,2.81 13.30,4.53 15.42,7.75 17.54,10.97 18.48,13.37 19.42,15.78 19.39,18.21 19.35,20.64 19.29,23.16 19.24,25.68 18.95,28.16 18.66,30.64 17.02,35.00 15.38,39.37 13.73,41.01 12.09,42.65 9.66,45.40 7.24,48.14 5.11,50.08 2.99,52.02 0.64,53.52 -1.70,55.01 -3.93,55.99 -6.17,56.98 -9.46,57.44 -12.76,57.91 -14.80,57.24 -16.84,56.57 -19.60,54.41 -22.36,52.26 -24.56,49.26 -26.76,46.26 -28.04,44.32 -29.32,42.39 -30.39,39.06 -31.45,35.73 -31.72,33.57 -32.00,31.41 -31.73,27.76 -31.46,24.11 -30.40,18.68 -29.34,13.24 -28.35,10.34 -27.35,7.43 -25.63,4.77 -23.91,2.11 -20.46,-0.93 -17.00,-3.98 -13.34,-4.68 -9.69,-5.38 -7.43,-5.35 -5.17,-5.31 -2.58,-5.30 0,-5.30 0.63,-5.22 1.26,-5.14 1.86,-4.92 2.46,-4.69 2.98,-4.33 3.51,-3.96 3.93,-3.48 4.36,-3.01 4.66,-2.44 4.95,-1.87 5.10,-1.25 5.26,-0.63 5.26,0.00 5.26,0.63 5.10,1.25 4.95,1.88 4.65,2.44 4.36,3.01 3.93,3.49 3.51,3.96 2.98,4.33 2.46,4.69 1.86,4.92 1.26,5.14 0.63,5.22 -0.00,5.30 -0.00,5.30 L 0,5.30 Z"></path></g><g transform="translate(152 249) rotate(0 -0.5 -3.5)" stroke="none"><path fill="#1e1e1e" d="M -4.65,0.93 Q -4.65,0.93 -5.05,-0.48 -5.44,-1.90 -5.80,-3.60 -6.15,-5.29 -6.16,-5.93 -6.17,-6.57 -6.02,-7.19 -5.88,-7.81 -5.59,-8.37 -5.30,-8.94 -4.89,-9.42 -4.47,-9.91 -3.96,-10.27 -3.44,-10.64 -2.85,-10.88 -2.25,-11.11 -1.62,-11.20 -0.99,-11.28 -0.36,-11.21 0.26,-11.15 0.86,-10.93 1.46,-10.71 1.99,-10.36 2.51,-10.01 2.94,-9.54 3.37,-9.06 3.68,-8.51 3.98,-7.95 4.14,-7.33 4.30,-6.72 4.65,-3.74 4.99,-0.76 4.98,0.05 4.97,0.86 4.70,1.63 4.44,2.41 3.93,3.05 3.43,3.70 2.75,4.15 2.07,4.60 1.28,4.81 0.49,5.02 -0.32,4.97 -1.13,4.92 -1.89,4.61 -2.64,4.30 -3.26,3.76 -3.88,3.23 -4.29,2.52 -4.71,1.82 -4.88,1.02 -5.04,0.22 -4.95,-0.58 -4.85,-1.40 -4.50,-2.13 -4.15,-2.87 -3.58,-3.46 -3.01,-4.05 -2.29,-4.42 -1.56,-4.80 -0.75,-4.92 0.05,-5.05 0.85,-4.91 1.66,-4.77 2.38,-4.38 3.09,-3.99 3.65,-3.39 4.21,-2.79 4.54,-2.04 4.88,-1.30 4.96,-0.48 5.04,0.32 4.85,1.12 4.67,1.91 4.24,2.61 3.81,3.31 3.18,3.83 2.56,4.35 1.79,4.65 1.03,4.94 0.21,4.98 -0.59,5.01 -1.38,4.79 -2.16,4.56 -2.84,4.09 -3.51,3.63 -4.00,2.97 -4.48,2.32 -4.74,1.54 -4.99,0.76 -4.99,0.76 -4.99,0.76 -5.57,-2.26 -6.15,-5.29 -6.16,-5.93 -6.17,-6.57 -6.02,-7.19 -5.88,-7.81 -5.59,-8.37 -5.30,-8.94 -4.89,-9.42 -4.47,-9.90 -3.96,-10.27 -3.44,-10.64 -2.85,-10.88 -2.25,-11.11 -1.62,-11.20 -0.99,-11.28 -0.36,-11.21 0.26,-11.15 0.86,-10.93 1.46,-10.71 1.99,-10.36 2.51,-10.01 2.94,-9.54 3.37,-9.07 3.68,-8.51 3.98,-7.95 4.14,-7.33 4.30,-6.72 4.30,-5.28 4.29,-3.84 4.47,-2.39 4.65,-0.93 4.69,-0.36 4.74,0.21 4.64,0.77 4.55,1.33 4.32,1.86 4.10,2.38 3.75,2.84 3.41,3.30 2.96,3.66 2.52,4.02 2.00,4.26 1.48,4.50 0.92,4.62 0.36,4.73 -0.20,4.70 -0.78,4.68 -1.32,4.52 -1.87,4.35 -2.37,4.07 -2.86,3.78 -3.27,3.38 -3.68,2.98 -3.99,2.50 -4.29,2.01 -4.47,1.47 -4.65,0.93 -4.65,0.93 L -4.65,0.93 Z"></path></g><g transform="translate(157 252) rotate(0 24 73.5)" stroke="none"><path fill="#1e1e1e" d="M 3.18,-3.82 Q 3.18,-3.82 6.44,-0.71 9.70,2.39 12.40,5.26 15.10,8.13 18.35,10.93 21.60,13.73 23.66,15.91 25.72,18.09 27.82,20.43 29.92,22.78 31.92,25.20 33.92,27.63 35.09,29.94 36.26,32.26 37.50,34.51 38.74,36.77 40.16,39.14 41.59,41.50 43.11,44.12 44.63,46.75 45.83,49.11 47.03,51.47 47.83,53.54 48.63,55.62 49.74,58.71 50.85,61.81 51.53,64.50 52.21,67.20 52.72,70.84 53.24,74.49 53.56,77.01 53.89,79.53 54.21,81.95 54.53,84.37 54.63,88.02 54.72,91.67 54.36,94.88 53.99,98.09 53.47,100.74 52.94,103.40 52.49,105.51 52.03,107.62 50.95,110.24 49.88,112.85 48.38,115.01 46.88,117.18 45.84,119.34 44.80,121.51 43.62,123.34 42.44,125.18 40.80,128.02 39.15,130.87 38.09,132.83 37.02,134.79 35.79,136.94 34.56,139.10 33.16,141.32 31.77,143.54 28.92,146.78 26.08,150.02 23.57,152.05 21.07,154.09 20.61,154.13 20.15,154.18 19.27,154.25 18.38,154.32 17.50,154.17 16.62,154.03 15.80,153.68 14.99,153.33 14.28,152.80 13.56,152.26 13.00,151.57 12.44,150.88 12.06,150.08 11.68,149.27 11.50,148.40 11.32,147.53 11.36,146.64 11.40,145.75 11.64,144.90 11.89,144.04 12.34,143.27 12.78,142.50 13.40,141.86 14.02,141.22 14.77,140.75 15.52,140.27 16.37,139.99 17.21,139.71 18.59,139.00 19.97,138.28 21.12,137.97 22.27,137.67 23.46,137.74 24.65,137.82 25.75,138.27 26.85,138.72 27.75,139.50 28.65,140.28 29.26,141.31 29.86,142.33 30.11,143.50 30.35,144.67 30.21,145.85 30.07,147.03 29.56,148.11 29.05,149.19 28.22,150.04 27.40,150.90 26.34,151.45 25.28,152.00 24.10,152.18 22.93,152.36 21.75,152.16 20.58,151.95 19.53,151.38 18.48,150.81 17.67,149.94 16.86,149.07 16.37,147.98 15.88,146.90 15.76,145.71 15.65,144.53 15.91,143.37 16.18,142.20 16.80,141.19 17.43,140.17 18.34,139.41 19.26,138.65 20.37,138.22 21.48,137.79 22.67,137.73 23.86,137.68 25.01,138.01 26.15,138.34 27.13,139.02 28.11,139.70 28.82,140.65 29.53,141.61 29.90,142.74 30.27,143.87 30.26,145.07 30.25,146.26 29.86,147.38 29.47,148.51 28.74,149.45 28.01,150.39 27.01,151.05 26.02,151.71 26.02,151.71 26.02,151.71 23.09,152.94 20.15,154.18 19.27,154.25 18.38,154.32 17.50,154.17 16.62,154.03 15.81,153.68 14.99,153.33 14.28,152.80 13.56,152.26 13.00,151.57 12.44,150.88 12.06,150.08 11.68,149.28 11.50,148.40 11.32,147.53 11.36,146.64 11.40,145.75 11.64,144.90 11.89,144.04 12.34,143.27 12.78,142.50 13.40,141.86 14.02,141.22 14.77,140.75 15.52,140.27 16.37,139.99 17.21,139.71 16.89,140.10 16.58,140.48 15.24,142.26 13.91,144.03 15.86,141.10 17.82,138.18 19.66,135.67 21.50,133.17 23.16,130.25 24.82,127.33 26.00,125.35 27.17,123.38 28.41,121.25 29.64,119.12 31.64,116.37 33.64,113.62 35.52,110.09 37.40,106.56 38.33,104.33 39.27,102.10 39.75,99.05 40.24,96.01 40.75,93.86 41.26,91.71 41.26,89.28 41.27,86.84 41.22,84.71 41.17,82.58 40.73,79.02 40.29,75.46 39.79,72.17 39.28,68.88 38.81,66.78 38.34,64.67 37.63,62.50 36.93,60.33 35.64,57.15 34.36,53.97 33.02,51.31 31.69,48.66 29.67,45.04 27.66,41.42 26.64,39.14 25.63,36.85 24.29,34.46 22.95,32.07 21.26,29.46 19.58,26.85 17.86,24.41 16.14,21.97 14.39,19.63 12.64,17.29 10.89,15.64 9.15,13.99 6.62,11.55 4.09,9.10 0.45,6.46 -3.18,3.82 -3.60,3.39 -4.01,2.95 -4.30,2.43 -4.60,1.90 -4.76,1.32 -4.92,0.74 -4.94,0.14 -4.96,-0.45 -4.83,-1.03 -4.71,-1.62 -4.44,-2.16 -4.18,-2.70 -3.79,-3.16 -3.41,-3.62 -2.93,-3.98 -2.44,-4.34 -1.89,-4.56 -1.33,-4.79 -0.74,-4.89 -0.15,-4.98 0.44,-4.92 1.04,-4.87 1.61,-4.67 2.18,-4.47 2.68,-4.15 3.19,-3.82 3.19,-3.82 L 3.18,-3.82 Z"></path></g></svg>